<?xml version="1.0" standalone="no"?>
<!DOCTYPE svg PUBLIC "-//W3C//DTD SVG 20010904//EN"
 "http://www.w3.org/TR/2001/REC-SVG-20010904/DTD/svg10.dtd">
<svg version="1.0" xmlns="http://www.w3.org/2000/svg"
 width="512.000000pt" height="512.000000pt" viewBox="0 0 512.000000 512.000000"
 preserveAspectRatio="xMidYMid meet">
<metadata>
Created by potrace 1.14, written by Peter Selinger 2001-2017
</metadata>
<g transform="translate(0.000000,512.000000) scale(0.100000,-0.100000)"
fill="#000000" stroke="none">
<path d="M2391 4994 c0 -11 3 -14 6 -6 3 7 2 16 -1 19 -3 4 -6 -2 -5 -13z"/>
<path d="M1855 4923 c4 -10 10 -28 12 -40 5 -20 23 -34 23 -18 0 13 -30 75
-36 75 -3 0 -3 -8 1 -17z"/>
<path d="M1811 4880 c6 -16 17 -30 25 -30 17 0 17 1 4 34 -5 14 -16 26 -24 26
-12 0 -13 -6 -5 -30z"/>
<path d="M1760 4886 c0 -16 22 -58 27 -52 14 14 10 37 -8 46 -10 6 -19 9 -19
6z"/>
<path d="M1720 4858 c0 -7 7 -21 14 -31 12 -16 14 -16 20 -1 8 22 8 26 -4 19
-5 -3 -10 1 -10 9 0 9 -4 16 -10 16 -5 0 -10 -6 -10 -12z"/>
<path d="M2535 4838 c-99 -9 -136 -19 -304 -86 -110 -43 -115 -44 -125 -26
-22 38 -87 93 -123 103 -94 26 -200 0 -288 -71 -66 -53 -104 -119 -116 -201
-13 -91 9 -153 82 -231 l57 -62 -30 -69 c-35 -83 -84 -226 -94 -275 -14 -74
-5 -236 16 -301 44 -129 117 -234 219 -313 l50 -40 -31 -38 c-17 -22 -65 -65
-107 -98 -107 -83 -316 -288 -396 -391 -16 -20 -38 -29 -100 -42 -44 -9 -114
-23 -155 -32 -41 -9 -158 -32 -259 -50 -101 -19 -186 -36 -188 -39 -28 -28
158 0 497 74 58 12 119 25 135 28 l30 5 -23 -26 c-13 -14 -44 -30 -68 -36 -24
-6 -44 -14 -44 -17 0 -5 5 -4 58 11 13 4 22 2 22 -4 0 -6 -10 -11 -22 -12 -13
0 -17 -3 -10 -6 16 -6 15 -16 -6 -39 -21 -23 -101 -163 -127 -221 -14 -34 -24
-43 -44 -44 -23 -2 -24 -2 -4 -6 19 -4 21 -7 10 -24 -6 -10 -19 -19 -27 -19
-11 0 -12 -2 -3 -8 17 -11 4 -52 -16 -52 -14 0 -14 -2 -1 -10 12 -8 10 -10
-10 -11 -17 -1 -19 -3 -7 -6 9 -2 17 -8 17 -11 0 -7 -102 -33 -207 -53 -45 -8
-60 -15 -56 -25 7 -19 30 -18 135 7 49 12 92 18 95 15 3 -3 -6 -34 -20 -70
-20 -49 -67 -267 -67 -310 0 -3 -7 -6 -16 -6 -9 0 -30 -6 -47 -14 -49 -21
-191 -47 -260 -47 -108 -1 -217 -37 -217 -72 0 -10 -26 -45 -59 -76 -67 -65
-111 -144 -142 -258 -18 -66 -21 -96 -16 -198 2 -66 8 -128 12 -137 6 -16 24
-18 159 -18 83 0 169 -3 190 -7 l39 -6 -7 44 c-4 24 -10 62 -13 84 l-5 40 263
-7 c145 -4 374 -12 509 -18 135 -6 340 -15 455 -20 213 -10 309 -24 570 -84
111 -26 317 -54 411 -57 48 -2 54 1 84 34 37 42 136 110 230 157 157 79 377
140 630 175 145 19 622 64 633 58 10 -6 8 -447 -3 -587 -12 -143 -31 -278 -70
-492 -17 -89 -30 -169 -30 -178 0 -14 25 -16 257 -16 l256 0 64 36 c36 20 63
38 61 40 -2 2 19 29 47 59 29 31 61 72 71 93 10 20 26 48 35 62 18 29 50 111
74 195 10 33 20 67 23 75 3 8 7 25 8 38 2 13 7 38 13 55 20 63 25 93 28 196 4
91 2 103 -11 98 -13 -5 -16 2 -17 41 l-1 47 -10 -45 c-17 -75 -18 -77 -31 -59
-7 8 -36 29 -64 45 -52 28 -75 55 -30 34 l22 -11 -22 17 c-35 26 -28 37 20 31
38 -5 39 -4 15 6 -16 6 -28 15 -28 20 0 4 4 5 10 2 5 -3 7 0 4 9 -5 13 -27 28
-46 30 -20 3 -18 16 3 17 15 0 18 3 9 6 -8 3 -23 15 -35 26 -11 10 -30 26 -42
34 -13 9 -24 25 -24 37 -1 17 -2 17 -6 3 -2 -9 -9 -17 -14 -17 -6 0 -8 4 -5 9
11 17 -5 39 -33 44 -16 3 -31 13 -35 22 -4 13 -2 14 14 5 11 -6 20 -7 20 -2 0
5 -21 16 -47 24 l-48 16 43 -2 c26 -2 41 2 39 8 -2 6 -10 11 -18 12 -43 3 -49
5 -49 14 0 6 7 10 16 10 9 0 23 8 30 18 16 21 17 32 4 32 -5 0 -10 -7 -10 -15
0 -9 -9 -15 -24 -15 -13 0 -27 -6 -30 -12 -2 -7 -3 4 0 25 4 31 2 37 -13 38
-13 1 -11 3 7 9 14 4 19 8 13 9 -20 2 -15 21 5 22 10 0 4 6 -15 15 -40 17 -42
27 -6 22 15 -2 28 2 30 10 3 6 -1 12 -9 13 -7 0 -2 5 12 11 25 11 25 11 3 15
-13 3 -23 11 -23 19 0 10 -7 13 -27 9 l-28 -6 25 15 c14 8 27 10 28 5 2 -5 9
-6 15 -2 7 4 8 0 4 -11 -6 -14 -3 -17 9 -12 8 3 18 6 20 6 2 0 4 7 4 15 0 9
-9 15 -22 15 -13 1 -36 7 -53 14 -27 12 -28 13 -10 19 24 8 69 4 185 -18 47
-8 86 -15 88 -15 1 0 2 15 2 33 0 28 -7 38 -46 66 -50 35 -51 41 -22 124 9 25
18 35 27 32 11 -4 12 -3 1 10 -7 8 -16 12 -21 9 -5 -3 -9 0 -9 5 0 6 8 11 17
11 15 0 14 2 -3 16 -18 15 -18 15 0 10 15 -5 17 -4 7 8 -6 7 -35 17 -64 20
-71 10 -177 38 -177 48 0 5 12 5 28 1 15 -4 36 -7 47 -6 11 0 51 -8 89 -18 38
-10 71 -17 73 -15 3 2 -22 13 -54 25 -32 12 -47 19 -33 16 65 -14 138 -25 173
-25 30 0 39 5 47 24 11 29 64 316 59 321 -2 1 -128 24 -279 49 -335 57 -370
64 -370 80 0 10 12 11 48 5 56 -9 132 -11 132 -3 0 11 -29 34 -43 34 -8 0 -17
11 -19 24 -5 23 -3 24 26 19 41 -8 46 -13 13 -13 -34 0 -35 -16 -3 -22 18 -4
26 0 30 16 7 25 6 26 -34 31 -18 2 -38 9 -43 14 -7 7 -3 9 14 6 13 -3 39 -7
57 -9 28 -4 32 -2 21 10 -17 20 -8 25 28 15 25 -7 33 -6 37 5 5 12 -1 14 -24
11 -16 -3 -30 -1 -32 4 -2 5 -20 10 -40 11 -21 2 -38 7 -38 11 0 5 -3 6 -7 4
-5 -3 -17 0 -28 4 -19 9 -19 9 1 5 17 -3 22 2 22 18 0 18 -10 24 -51 34 -57
13 -75 26 -56 37 8 5 10 4 5 -3 -4 -7 -1 -12 9 -12 8 0 18 7 21 15 5 12 21 14
82 10 43 -2 65 -1 51 1 -21 4 -26 10 -22 25 3 11 14 19 27 20 11 0 -14 10 -56
22 -42 12 -83 28 -90 35 -11 11 -10 13 2 10 8 -2 14 2 13 9 -3 13 16 11 162
-12 50 -8 106 -14 125 -14 38 1 44 0 -158 35 -52 9 -89 20 -86 25 3 6 1 16 -5
23 -7 9 -6 19 5 34 12 17 19 20 34 12 38 -20 59 -12 66 25 8 43 -1 55 -21 29
-12 -15 -14 -15 -9 -2 4 13 -4 20 -36 29 -38 11 -41 15 -38 43 3 27 8 32 41
37 21 3 37 2 37 -4 0 -5 11 -7 25 -5 14 3 28 1 31 -3 3 -5 10 -9 16 -9 6 0 3
10 -8 22 -17 19 -17 21 -2 15 12 -4 21 0 28 13 13 24 13 30 0 30 -5 0 -10 -7
-10 -15 0 -8 -5 -15 -11 -15 -6 0 -8 9 -4 21 5 15 3 20 -6 17 -8 -3 -16 -20
-19 -39 -3 -20 -8 -29 -13 -22 -4 6 -3 23 3 38 10 26 9 27 -29 37 -18 5 -24
43 -11 68 9 16 18 18 63 14 43 -5 283 -38 440 -61 29 -4 37 -2 37 9 0 15 -23
20 -145 34 -61 7 -252 34 -321 45 l-61 11 13 36 c7 20 13 45 14 55 0 14 9 17
48 17 l48 0 12 68 c7 38 28 118 46 178 170 554 185 610 170 651 -5 16 -22 32
-40 39 l-32 13 -65 -172 c-37 -95 -121 -323 -187 -507 -67 -184 -143 -393
-170 -465 -26 -71 -51 -140 -54 -153 -4 -12 -11 -20 -16 -17 -4 3 -6 -5 -2
-17 3 -14 1 -19 -6 -14 -8 4 -10 2 -6 -7 3 -8 -2 -30 -10 -48 -11 -24 -14 -27
-10 -9 6 32 -10 7 -20 -30 -6 -20 -5 -22 4 -10 9 12 10 10 5 -10 -13 -45 -117
-305 -131 -325 -18 -25 -18 -13 1 32 23 54 17 54 -12 -2 l-25 -49 -35 37 c-18
21 -31 42 -28 47 3 5 1 11 -5 15 -6 4 -5 18 5 41 18 43 11 45 -11 2 -15 -29
-17 -30 -27 -12 -6 10 -12 25 -13 33 -2 8 -8 17 -14 21 -6 4 -13 16 -15 26 -2
10 -4 20 -5 22 -2 1 -3 6 -4 10 0 5 -14 21 -31 36 l-30 27 39 -16 c21 -8 41
-15 44 -15 9 0 -72 56 -92 63 -14 6 -16 10 -7 21 10 12 7 17 -16 28 -15 8 -27
21 -27 30 1 9 -4 14 -11 12 -6 -3 -12 2 -12 9 0 12 8 11 44 -4 68 -29 85 -22
23 10 -48 25 -52 29 -31 36 18 5 20 9 10 21 -13 16 -34 19 -24 4 3 -6 -1 -7
-9 -4 -13 5 -12 9 7 26 l22 19 -22 -6 c-29 -8 -39 11 -13 25 11 6 20 7 20 1 0
-5 8 -12 17 -15 16 -6 16 -6 1 11 -9 10 -17 22 -17 28 0 5 -5 11 -13 13 -9 2
-8 0 2 -7 19 -13 0 -14 -20 -1 -8 5 -10 10 -3 10 18 0 9 31 -13 42 -18 9 -18
9 0 -6 23 -18 5 -22 -26 -5 -11 6 -22 8 -25 5 -3 -3 7 -10 22 -16 15 -6 25
-13 22 -17 -10 -9 -58 27 -51 38 3 6 13 8 23 5 11 -4 10 -2 -4 9 -18 14 -21
14 -36 -6 -9 -12 -19 -17 -22 -12 -9 14 0 73 14 89 9 11 9 14 -1 14 -6 0 -25
9 -41 21 l-30 21 20 31 c44 73 83 209 88 313 7 119 -16 278 -52 364 -40 97
-40 93 10 149 84 95 121 202 104 297 -21 117 -107 232 -204 274 -54 23 -178
44 -220 36 -43 -8 -129 -77 -145 -116 -7 -16 -14 -30 -15 -30 -2 0 -36 13 -77
29 -71 29 -277 90 -328 98 -74 11 -267 17 -345 11z m-295 -898 c0 -5 -4 -10
-10 -10 -5 0 -10 5 -10 10 0 6 5 10 10 10 6 0 10 -4 10 -10z m740 -20 c0 -5
-7 -10 -16 -10 -8 0 -12 5 -9 10 3 6 10 10 16 10 5 0 9 -4 9 -10z m-281 -20
c47 -12 111 -32 142 -46 l58 -26 -17 -37 c-9 -20 -22 -40 -28 -46 -6 -5 -24
-28 -40 -50 -16 -21 -36 -47 -45 -56 -9 -9 -36 -43 -60 -75 -24 -33 -47 -60
-51 -62 -5 -2 -8 -9 -8 -16 0 -7 -11 -25 -24 -39 -13 -14 -22 -27 -20 -29 2
-2 -8 -17 -21 -32 -14 -16 -25 -38 -25 -50 0 -43 -20 2 -39 91 -25 113 -27
153 -6 153 22 0 95 38 123 64 57 51 67 117 26 165 -30 36 -77 51 -159 51 -83
0 -133 -16 -172 -55 -40 -40 -44 -91 -12 -136 22 -31 113 -89 140 -89 12 0 20
-23 33 -102 9 -57 19 -115 22 -129 5 -21 1 -27 -18 -32 -71 -19 -267 3 -305
35 -7 6 -16 8 -19 6 -3 -3 15 -15 39 -27 54 -26 191 -44 273 -36 71 8 84 -2
51 -36 -31 -33 -105 -92 -128 -103 -10 -5 -19 -13 -19 -17 0 -16 -70 0 -121
27 -86 47 -154 117 -196 201 -33 66 -37 83 -37 151 0 86 27 160 83 231 32 40
189 133 263 156 66 21 219 18 317 -5z m-270 -94 c-12 -10 -60 -16 -54 -6 3 5
18 10 32 10 15 0 24 -2 22 -4z m1317 -477 c4 -8 1 -8 -14 0 -12 6 -24 16 -28
22 -4 8 -1 8 14 0 12 -6 24 -16 28 -22z m-1 -29 c3 -5 2 -10 -4 -10 -5 0 -13
5 -16 10 -3 6 -2 10 4 10 5 0 13 -4 16 -10z m70 -108 c-3 -3 -11 0 -18 7 -9
10 -8 11 6 5 10 -3 15 -9 12 -12z m-1517 -147 c18 -4 32 -13 32 -21 0 -8 7
-14 16 -14 26 0 9 -25 -17 -26 -55 -1 -247 65 -232 80 4 4 1 12 -7 17 -11 7
-5 9 23 6 20 -3 37 -1 37 3 0 5 26 -2 58 -15 31 -12 72 -26 90 -30z m2292 -50
c0 -8 -4 -15 -10 -15 -5 0 -7 7 -4 15 4 8 8 15 10 15 2 0 4 -7 4 -15z m-1492
-26 c15 0 73 -23 129 -52 l102 -52 -69 -52 -69 -52 -30 24 c-16 14 -32 25 -36
25 -13 0 -124 98 -118 104 4 3 -2 6 -13 6 -13 1 -9 5 13 15 17 7 37 24 44 37
7 14 14 18 17 10 2 -6 16 -12 30 -13z m-155 -139 c-3 -12 -121 -132 -262 -268
-141 -137 -283 -274 -316 -306 l-60 -59 55 48 c84 72 222 202 422 398 100 97
187 177 195 177 27 0 12 -28 -42 -80 -47 -43 -54 -54 -43 -67 18 -22 17 -36
-5 -58 -20 -20 -20 -20 -8 3 12 23 7 62 -8 62 -4 0 -16 -9 -26 -20 -18 -20
-18 -21 10 -50 28 -30 53 -35 47 -10 -1 7 2 18 8 24 5 7 7 16 3 19 -3 4 -2 7
4 7 20 0 23 -14 6 -34 -15 -17 -13 -17 12 3 17 13 30 28 30 35 0 7 13 28 29
47 16 19 27 26 23 17 -4 -12 -2 -15 9 -11 9 3 14 -1 14 -12 0 -10 5 -15 13
-12 6 2 18 -2 25 -9 7 -8 9 -14 3 -14 -5 0 -12 -8 -15 -17 -4 -10 -4 -14 0
-10 4 4 16 0 26 -10 10 -9 21 -13 25 -10 3 4 12 2 20 -4 9 -8 13 -8 13 -1 0 6
-5 14 -10 17 -8 5 -7 11 1 21 6 8 9 17 6 21 -4 3 -9 -1 -13 -10 -5 -14 -8 -15
-21 -2 -10 11 -11 19 -4 32 10 17 10 17 11 -1 0 -12 5 -16 16 -12 24 9 35 -3
24 -25 -7 -12 -7 -19 -1 -19 6 0 8 -7 5 -15 -5 -11 -2 -13 10 -9 9 3 16 13 16
21 0 10 6 12 23 7 15 -5 6 8 -28 39 -27 25 -53 46 -57 47 -5 0 -8 4 -8 9 0 6
12 3 28 -5 15 -7 32 -14 39 -14 7 0 36 -19 65 -43 75 -61 238 -177 249 -177
16 0 10 -18 -8 -25 -36 -12 -57 -34 -45 -48 9 -10 -13 -34 -96 -107 -59 -52
-110 -94 -113 -93 -3 1 -23 -16 -44 -38 -22 -21 -36 -39 -32 -39 4 0 23 16 42
36 19 20 35 31 35 26 0 -6 -26 -32 -57 -59 -78 -66 -143 -116 -143 -109 0 2
27 26 61 51 65 50 74 76 12 31 -45 -32 -154 -131 -133 -120 8 4 23 14 33 22 9
8 17 13 17 10 0 -3 -21 -23 -47 -44 -27 -21 -39 -28 -29 -16 11 12 14 22 8 22
-6 0 -23 -15 -39 -34 -15 -18 -57 -58 -93 -87 -123 -102 -356 -337 -383 -387
-24 -45 -25 -50 -11 -68 11 -14 17 -15 20 -6 3 6 10 12 15 12 6 0 7 -4 4 -10
-3 -5 -1 -10 4 -10 6 0 11 4 11 9 0 16 31 21 53 10 22 -12 22 -12 3 10 -20 22
-9 30 13 9 12 -11 13 -10 7 6 -7 20 11 49 25 40 5 -3 8 0 7 8 -2 7 3 12 10 10
8 -1 11 1 8 6 -9 15 97 110 119 107 20 -4 20 -4 1 11 -15 10 -16 14 -5 14 8 0
20 -5 27 -10 9 -7 9 -7 2 2 -15 18 -12 28 9 28 10 0 22 -7 25 -16 4 -9 9 -14
12 -11 9 9 -32 57 -41 49 -5 -4 -5 -1 -1 6 8 13 19 9 49 -17 24 -20 53 -25 36
-5 -6 7 -14 12 -18 10 -4 -3 -12 4 -19 14 -10 17 -9 18 18 10 16 -5 35 -12 42
-16 7 -4 3 4 -9 18 -25 26 -31 47 -10 31 6 -6 21 -13 32 -16 17 -6 16 -3 -5
14 l-25 22 25 -7 25 -7 -25 16 c-20 13 -21 15 -5 12 11 -3 29 -8 40 -12 17 -6
16 -3 -5 16 l-25 22 31 -6 c40 -8 60 10 38 34 -15 17 -14 17 20 7 45 -14 56
-5 25 23 -29 25 -6 14 36 -17 17 -13 61 -37 98 -54 37 -18 67 -34 67 -37 0
-10 -105 -129 -215 -243 -61 -63 -148 -161 -195 -217 -46 -56 -87 -100 -92
-97 -4 3 4 22 18 42 l26 37 -31 -35 -31 -35 -47 52 c-52 56 -112 98 -156 109
-15 3 -49 30 -75 59 -26 29 -90 83 -142 121 -110 78 -328 279 -372 342 l-29
42 23 0 c55 0 290 186 425 335 61 68 61 68 42 89 -11 11 -22 32 -25 46 -3 14
-9 32 -14 40 -9 17 -14 11 143 143 58 48 110 87 117 87 6 0 26 -11 43 -24 l32
-25 145 119 c80 65 148 119 152 119 3 1 4 -8 1 -19z m1597 -30 c0 -5 -2 -10
-4 -10 -3 0 -8 5 -11 10 -3 6 -1 10 4 10 6 0 11 -4 11 -10z m30 -4 c0 -8 -7
-16 -15 -20 -12 -4 -13 -2 -2 14 14 24 17 25 17 6z m-1566 -27 c-4 -8 1 -9 17
-4 17 4 20 3 10 -3 -17 -13 1 -24 25 -15 14 5 16 3 10 -12 -4 -11 -4 -16 0
-12 8 7 33 -22 33 -38 0 -5 -6 -1 -15 10 -8 11 -18 20 -22 19 -13 -2 -71 50
-66 58 3 4 7 8 10 8 3 0 2 -5 -2 -11z m-36 -74 c-3 -3 -9 2 -12 12 -6 14 -5
15 5 6 7 -7 10 -15 7 -18z m-28 -10 c-8 -10 -7 -16 7 -23 10 -6 14 -14 10 -19
-5 -4 -14 0 -21 9 -7 10 -16 15 -19 11 -4 -3 -7 -1 -7 5 0 7 5 12 10 12 6 0
10 7 10 16 0 8 5 12 10 9 8 -5 8 -11 0 -20z m-60 -42 c-1 -18 -18 -35 -24 -24
-4 6 -4 16 -1 21 7 12 25 13 25 3z m235 -4 c12 -18 -3 -22 -20 -5 -14 14 -14
16 -1 16 8 0 18 -5 21 -11z m1475 -31 c0 -4 -16 -8 -36 -8 -19 0 -33 4 -29 9
7 12 65 11 65 -1z m-40 -118 c0 -5 -7 -7 -15 -4 -8 4 -15 8 -15 10 0 2 7 4 15
4 8 0 15 -4 15 -10z m419 -279 c27 -7 34 -29 25 -83 -7 -48 -34 -51 -87 -7
-33 27 -53 60 -27 44 6 -3 10 0 11 7 0 9 2 10 5 1 9 -22 31 -3 26 23 -5 25 2
28 47 15z m-269 -21 c0 -5 -4 -10 -10 -10 -5 0 -10 -10 -10 -22 0 -18 -2 -20
-9 -9 -6 9 -6 22 0 33 10 19 29 24 29 8z m40 4 c0 -8 -19 -13 -24 -6 -3 5 1 9
9 9 8 0 15 -2 15 -3z m5 -232 c-3 -3 -11 0 -18 7 -9 10 -8 11 6 5 10 -3 15 -9
12 -12z m105 -12 c0 -5 -6 -10 -14 -10 -8 0 -18 5 -21 10 -3 6 3 10 14 10 12
0 21 -4 21 -10z m-105 -18 c-3 -3 -11 0 -18 7 -9 10 -8 11 6 5 10 -3 15 -9 12
-12z m89 -13 c-8 -14 -24 -10 -24 6 0 9 6 12 15 9 8 -4 12 -10 9 -15z m-101
-6 c-7 -2 -19 -2 -25 0 -7 3 -2 5 12 5 14 0 19 -2 13 -5z m109 -19 c16 -5 15
-8 -6 -27 -13 -12 -26 -32 -30 -44 -12 -36 -25 -26 -20 14 4 30 0 41 -18 56
l-23 18 40 -6 c22 -3 48 -8 57 -11z m-1645 -100 c33 -6 42 -17 24 -29 -26 -16
-220 92 -206 115 3 5 38 -11 77 -36 39 -24 87 -47 105 -50z m-247 4 c0 -6 -6
-5 -15 2 -8 7 -15 14 -15 16 0 2 7 1 15 -2 8 -4 15 -11 15 -16z m-2386 -499
c14 -11 26 -29 26 -39 0 -22 -47 -70 -70 -71 -9 0 -6 -4 7 -9 41 -17 39 -90
-3 -90 -24 0 -27 23 -4 40 29 22 9 38 -26 20 -22 -12 -27 -10 -59 24 -38 40
-58 43 -63 8 -4 -24 4 -27 28 -13 25 16 45 -24 30 -60 -14 -34 -35 -37 -65 -9
l-21 20 -13 -35 c-17 -48 -51 -42 -80 13 -24 45 28 88 73 58 24 -15 24 -15 19
23 -5 34 -2 41 20 55 20 14 29 15 51 5 14 -7 28 -20 31 -30 6 -17 7 -17 24 0
13 13 17 28 13 51 -3 25 0 37 14 47 24 18 37 17 68 -8z m4238 -53 c7 4 8 2 4
-5 -9 -13 -26 -5 -25 12 0 9 2 8 6 -1 2 -6 10 -9 15 -6z m-4040 -83 c26 -23
22 -47 -13 -88 l-31 -35 -18 22 c-24 32 -33 75 -20 98 13 25 56 26 82 3z
m4193 -83 c-3 -5 -10 -10 -16 -10 -5 0 -9 5 -9 10 0 6 7 10 16 10 8 0 12 -4 9
-10z"/>
<path d="M2986 2675 c-9 -26 -7 -32 5 -11 11 17 13 17 36 -10 22 -27 23 -27
12 -4 -11 22 -11 24 3 12 10 -8 19 -9 22 -4 3 6 -5 13 -18 16 -13 3 -31 8 -39
12 -8 3 -17 -2 -21 -11z"/>
<path d="M3005 2631 c-3 -6 -10 -9 -15 -6 -5 3 -12 0 -16 -6 -5 -8 0 -10 18
-6 27 7 54 -13 40 -28 -4 -5 -1 -5 6 -1 11 6 10 12 -5 29 -10 12 -19 23 -19
25 -1 2 -5 -2 -9 -7z"/>
<path d="M3065 2609 c4 -5 -1 -20 -12 -32 l-18 -22 23 20 c20 16 25 17 32 5 6
-9 10 -10 10 -3 0 6 -7 19 -16 27 -18 18 -28 21 -19 5z"/>
<path d="M3116 2587 c3 -10 9 -15 12 -12 3 3 0 11 -7 18 -10 9 -11 8 -5 -6z"/>
<path d="M3196 2550 c-32 -28 -69 -58 -83 -67 -13 -9 -22 -18 -19 -20 2 -3 16
3 30 12 14 9 31 13 37 9 9 -5 10 -2 6 9 -4 12 -1 17 11 17 10 0 25 8 33 18 9
11 27 26 40 35 16 12 20 20 13 27 -7 7 -29 -6 -68 -40z"/>
<path d="M2906 2575 c-5 -13 5 -20 27 -16 4 0 6 -3 5 -8 -5 -15 80 -72 88 -60
3 6 1 16 -5 22 -8 8 -11 8 -11 -2 0 -7 -5 -9 -11 -6 -6 4 -8 12 -6 19 7 19
-18 37 -33 23 -10 -9 -11 -9 -8 3 5 16 -14 40 -30 40 -6 0 -12 -7 -16 -15z"/>
<path d="M2768 2558 c17 -17 15 -33 -3 -18 -18 15 -20 13 -144 -107 -75 -71
-83 -83 -71 -98 9 -11 16 -13 24 -5 16 16 30 12 16 -5 -7 -9 -11 -17 -9 -18 2
-1 12 -8 21 -16 13 -9 22 -10 38 -1 20 11 21 10 11 -9 -8 -13 -8 -22 -1 -26
12 -8 80 48 173 142 l68 69 -26 24 c-14 13 -25 20 -25 16 0 -4 -14 9 -31 29
-17 19 -36 35 -42 35 -7 0 -7 -4 1 -12z m52 -48 c0 -5 -5 -10 -11 -10 -5 0 -7
5 -4 10 3 6 8 10 11 10 2 0 4 -4 4 -10z m31 -34 c-7 -9 -7 -16 2 -26 9 -10 9
-11 0 -6 -7 4 -17 15 -22 24 -8 14 -5 18 11 19 15 2 17 -1 9 -11z m-109 -11
c3 0 10 -4 15 -9 5 -5 3 -6 -4 -2 -7 4 -13 2 -13 -4 0 -6 8 -10 18 -8 21 3 52
-18 52 -35 0 -6 -6 -2 -14 8 -8 11 -24 20 -36 20 -13 0 -30 11 -39 25 -13 20
-13 22 -1 15 8 -5 18 -10 22 -10z m-18 -44 c-5 -6 -34 20 -34 30 0 5 8 1 18
-8 10 -10 17 -20 16 -22z m114 4 c-3 -3 -9 2 -12 12 -6 14 -5 15 5 6 7 -7 10
-15 7 -18z m-153 -15 c4 0 1 8 -6 18 -11 14 -10 14 8 -2 13 -10 20 -23 17 -27
-3 -5 6 -13 19 -18 13 -5 27 -17 30 -25 8 -20 -2 -20 -27 -1 -10 8 -24 12 -30
8 -6 -3 -8 -3 -4 2 9 9 -9 35 -24 35 -6 0 -4 -8 3 -17 13 -16 12 -17 -3 -4
-27 20 -21 -2 6 -28 14 -13 29 -20 35 -17 5 4 13 1 17 -5 4 -8 3 -9 -4 -5 -8
4 -12 0 -12 -11 -1 -17 -1 -17 -14 0 -10 12 -16 15 -21 7 -5 -8 -11 -8 -19 -1
-7 6 -16 7 -20 3 -4 -4 -7 -2 -6 3 4 19 0 36 -8 31 -4 -2 -9 5 -9 16 -2 17 3
14 24 -15 14 -20 30 -34 35 -30 6 3 6 8 2 12 -5 3 -22 24 -38 46 -20 27 -23
34 -9 22 13 -11 23 -14 27 -8 4 5 2 12 -4 16 -5 3 -10 11 -10 17 0 6 8 4 18
-5 10 -10 22 -17 27 -17z m101 -12 l19 -23 -21 18 c-16 13 -23 15 -26 6 -3 -8
-9 -9 -18 -4 -11 7 -10 10 6 16 10 4 19 8 20 8 0 1 9 -9 20 -21z m-189 -33 c0
-8 -4 -12 -9 -9 -5 3 -6 10 -3 15 9 13 12 11 12 -6z m28 -65 c3 -5 2 -10 -4
-10 -5 0 -13 5 -16 10 -3 6 -2 10 4 10 5 0 13 -4 16 -10z m65 -9 c0 -6 -4 -13
-10 -16 -5 -3 -10 1 -10 9 0 9 5 16 10 16 6 0 10 -4 10 -9z"/>
<path d="M3237 2534 c-21 -19 -35 -39 -32 -44 10 -16 28 -11 21 5 -3 10 1 15
12 15 10 0 26 10 36 21 13 16 21 18 29 10 8 -8 -1 -24 -36 -59 -26 -26 -47
-52 -47 -57 0 -6 15 7 34 27 34 37 54 41 35 7 -7 -15 -6 -17 6 -13 8 4 15 1
15 -4 0 -6 -9 -9 -21 -7 -14 3 -33 -7 -58 -30 -20 -19 -30 -35 -23 -35 6 0 12
5 12 11 0 5 5 7 12 3 7 -5 5 -11 -7 -21 -17 -12 -17 -13 -2 -13 9 0 16 -3 15
-7 -6 -16 14 -13 37 6 16 12 23 25 19 35 -10 25 -26 19 -18 -6 6 -20 5 -21
-10 -9 -11 9 -13 17 -6 26 5 6 7 15 3 18 -3 4 -1 7 5 7 7 0 17 -9 24 -20 15
-23 33 -27 25 -6 -4 9 -1 13 6 11 7 -3 27 10 46 27 l34 31 -59 53 c-32 29 -61
53 -64 53 -3 0 -22 -15 -43 -35z m88 -40 c-23 -17 -32 -10 -15 11 7 8 17 12
23 8 6 -4 3 -11 -8 -19z m11 -38 c15 -16 18 -26 6 -26 -4 0 -13 9 -20 20 -14
23 -7 26 14 6z m-81 -56 c-3 -5 -11 -10 -16 -10 -6 0 -7 5 -4 10 3 6 11 10 16
10 6 0 7 -4 4 -10z m-4 -63 c-10 -9 -11 -8 -5 6 3 10 9 15 12 12 3 -3 0 -11
-7 -18z"/>
<path d="M3182 2479 c2 -7 10 -15 17 -17 8 -3 12 1 9 9 -2 7 -10 15 -17 17 -8
3 -12 -1 -9 -9z"/>
<path d="M3169 2463 c-1 -4 -1 -11 -1 -14 1 -4 -6 -6 -15 -5 -9 0 -18 -4 -20
-11 -5 -15 33 -5 47 12 8 9 8 15 0 20 -5 3 -11 3 -11 -2z"/>
<path d="M2819 2329 c-63 -62 -102 -102 -88 -90 14 12 29 18 34 14 4 -5 5 -3
2 3 -8 14 26 47 37 37 4 -5 6 -2 4 5 -5 22 29 39 44 23 8 -8 8 -11 1 -7 -13 7
-12 -19 2 -31 4 -4 5 -2 1 5 -12 21 8 13 22 -9 8 -12 19 -18 28 -15 9 3 12 2
9 -5 -4 -5 -1 -16 5 -24 15 -18 34 -20 24 -3 -4 7 -3 8 5 4 6 -4 9 -12 6 -17
-4 -5 3 -22 14 -38 12 -16 21 -31 21 -34 0 -6 -42 -20 -55 -17 -5 1 -7 -2 -3
-6 4 -4 3 -13 -3 -20 -9 -11 -15 -9 -32 7 l-22 20 29 25 c15 14 26 28 22 31
-3 4 -7 4 -9 2 -30 -42 -57 -68 -57 -55 0 9 -5 16 -11 16 -5 0 -8 3 -6 8 4 9
-40 52 -47 44 -3 -3 -6 2 -6 10 0 22 -25 29 -45 14 -16 -12 -14 -17 30 -57 27
-24 54 -43 62 -43 7 1 11 -2 8 -6 -7 -11 30 -41 40 -33 4 5 5 3 2 -3 -6 -10
43 -54 60 -54 4 0 2 4 -6 9 -12 8 -13 12 -1 25 11 14 10 16 -6 10 -11 -3 -5 7
16 25 33 29 68 45 42 19 -7 -7 -12 -16 -12 -22 0 -5 6 -1 14 9 8 11 12 23 10
27 -2 4 0 9 6 13 5 3 10 0 10 -7 1 -8 6 -6 15 6 11 15 12 23 3 33 -9 11 -13
12 -21 1 -6 -9 -7 -8 -3 5 4 11 -5 26 -26 45 -18 15 -52 46 -76 70 -25 23 -50
42 -55 42 -7 0 -6 5 1 12 10 10 15 10 23 -2 9 -13 10 -13 7 0 -2 8 2 16 7 17
6 1 9 -8 8 -20 -3 -21 -2 -21 12 -3 13 17 13 21 -1 31 -14 10 -14 13 2 26 16
13 17 12 11 -5 -7 -16 -4 -18 25 -12 l33 6 -27 -21 c-16 -11 -28 -28 -27 -37
0 -12 3 -10 9 6 11 25 20 28 38 10 10 -10 15 -10 22 2 10 17 -24 60 -47 60 -8
0 -12 4 -8 9 3 5 1 12 -4 15 -5 3 -60 -44 -122 -105z m181 35 c0 -8 -19 -13
-24 -6 -3 5 1 9 9 9 8 0 15 -2 15 -3z m-186 -190 c3 -8 2 -12 -4 -9 -6 3 -10
10 -10 16 0 14 7 11 14 -7z"/>
<path d="M3185 2409 c-4 -6 -5 -13 -2 -16 7 -7 27 6 27 18 0 12 -17 12 -25 -2z"/>
<path d="M3020 2341 c0 -21 4 -26 19 -23 13 3 13 1 2 -12 -9 -11 -10 -16 -2
-16 6 0 11 6 11 13 0 6 16 -5 35 -25 24 -25 33 -42 28 -54 -4 -12 -3 -15 5
-10 16 10 15 -6 0 -24 -7 -8 -3 -6 9 4 16 13 20 23 14 35 -14 24 -121 124
-121 112z"/>
<path d="M2977 2314 c3 -8 -1 -14 -8 -14 -9 0 -7 -5 4 -11 14 -8 22 -8 30 1 9
8 7 9 -8 4 -17 -7 -18 -6 -7 8 10 13 10 17 -2 21 -10 4 -13 1 -9 -9z"/>
<path d="M2392 2232 l-74 -67 67 -64 66 -63 25 23 c13 12 26 30 29 40 3 10 12
16 18 13 7 -2 29 13 49 34 l37 39 -28 27 c-15 14 -30 23 -34 19 -4 -3 -7 -1
-7 6 0 14 -50 60 -65 61 -5 0 -43 -30 -83 -68z m117 35 c6 -8 8 -16 5 -20 -9
-8 32 -27 41 -19 5 4 5 1 1 -6 -4 -7 -3 -19 3 -26 8 -10 7 -17 -4 -26 -8 -7
-12 -16 -9 -21 3 -5 0 -8 -8 -7 -7 2 -12 -3 -10 -10 1 -8 -2 -11 -8 -7 -5 3
-22 -7 -37 -22 -14 -15 -23 -22 -19 -16 5 9 2 11 -10 6 -11 -4 -15 -2 -11 4 3
5 -9 25 -28 43 -19 18 -32 37 -29 41 3 5 -2 6 -10 3 -21 -8 -20 -12 7 -34 l22
-19 -22 2 c-12 0 -19 5 -17 9 3 4 -2 8 -10 8 -25 0 -17 23 17 50 17 14 28 19
24 13 -12 -20 1 -15 37 12 18 14 44 25 57 25 23 1 23 1 5 15 -11 8 -15 15 -9
15 6 0 16 -6 22 -13z m-74 -166 c0 -7 8 -19 18 -26 10 -7 15 -15 10 -18 -4 -3
-26 11 -48 30 l-40 34 30 -4 c17 -2 30 -9 30 -16z"/>
<path d="M2820 2282 c0 -5 -9 -12 -20 -15 -23 -6 -27 -24 -5 -24 21 0 49 33
36 42 -6 3 -11 2 -11 -3z"/>
<path d="M2995 2259 c-4 -6 -5 -12 -2 -15 2 -3 7 2 10 11 7 17 1 20 -8 4z"/>
<path d="M2835 2240 c-3 -5 -2 -10 4 -10 5 0 13 5 16 10 3 6 2 10 -4 10 -5 0
-13 -4 -16 -10z"/>
<path d="M2879 2213 c-13 -15 -12 -15 9 -4 23 12 28 21 13 21 -5 0 -15 -7 -22
-17z"/>
<path d="M2734 2132 c38 -37 68 -68 67 -69 0 -2 1 -3 4 -3 13 0 1 15 -57 75
-34 36 -67 65 -73 65 -5 0 21 -31 59 -68z"/>
<path d="M3071 2190 c-1 -23 15 -45 23 -31 4 6 3 11 -3 11 -5 0 -12 8 -14 18
-3 12 -5 13 -6 2z"/>
<path d="M2597 2122 c-31 -32 -35 -41 -24 -50 8 -7 18 -8 23 -4 5 4 0 -3 -10
-15 -21 -25 -41 -29 -52 -11 -5 8 0 9 15 5 18 -4 20 -3 10 9 -10 13 -14 12
-31 -3 -18 -16 -18 -18 -2 -30 9 -7 21 -10 27 -6 6 3 7 2 4 -4 -8 -13 6 -30
63 -79 25 -21 36 -29 26 -16 -24 27 -3 29 24 2 12 -12 20 -15 20 -7 0 6 10 1
23 -13 12 -14 19 -21 16 -15 -4 5 -1 16 6 22 9 8 16 9 20 3 3 -6 1 -10 -5 -10
-6 0 -8 -5 -4 -11 9 -15 28 17 20 36 -3 8 -1 17 3 20 5 3 12 -2 15 -11 6 -15
8 -15 24 -2 33 28 47 31 23 5 -14 -15 -22 -27 -19 -27 10 0 48 37 48 47 0 10
-54 64 -67 66 -4 1 -7 5 -6 9 2 4 -4 5 -12 1 -13 -5 -13 -7 2 -18 10 -7 21
-11 25 -9 5 3 8 1 8 -5 0 -5 -21 -28 -47 -51 l-47 -41 -17 22 c-12 17 -18 19
-22 8 -4 -11 -6 -11 -6 -1 -1 7 -6 10 -12 6 -7 -4 -10 -1 -7 7 3 8 -6 26 -20
42 -24 25 -24 28 -9 40 9 6 18 23 20 37 3 18 10 25 26 24 11 0 21 5 21 11 0
17 -27 38 -39 31 -5 -4 -11 1 -13 9 -2 12 -13 6 -41 -23z m57 -4 c-3 -4 -16
-8 -30 -8 -14 0 -22 4 -19 10 3 5 17 9 30 8 13 -1 21 -6 19 -10z m-44 -29 c0
7 5 9 10 6 13 -8 13 -55 -1 -55 -5 0 -7 4 -4 10 3 5 -3 15 -15 22 -11 7 -20
17 -20 22 0 4 7 3 15 -4 11 -9 15 -9 15 -1z m-15 -73 c0 -14 -5 -22 -12 -19
-9 4 -10 10 -2 24 13 24 14 24 14 -5z m41 -49 c1 -9 -2 -17 -7 -17 -5 0 -9 5
-9 11 0 5 -4 7 -10 4 -6 -3 -7 1 -4 10 8 20 26 15 30 -8z m179 -7 c-10 -11
-21 -17 -24 -14 -3 3 3 12 13 20 28 20 32 17 11 -6z"/>
<path d="M2235 2100 c-33 -27 -59 -54 -57 -61 1 -6 -5 -17 -15 -25 -28 -21
-38 -16 -17 8 l19 22 -26 -19 -26 -20 26 -20 c14 -11 32 -19 39 -17 8 2 11 -1
7 -7 -4 -7 0 -8 11 -4 12 4 14 8 5 11 -9 3 -6 11 10 28 31 33 12 30 -23 -3
-15 -15 -28 -22 -28 -16 0 13 49 48 67 48 7 0 13 4 13 8 0 4 0 12 0 17 0 6
-10 11 -22 11 -19 1 -19 2 -5 6 10 3 27 -3 38 -13 16 -14 21 -15 36 -3 15 11
16 11 6 -1 -20 -22 -15 -32 10 -19 21 11 21 11 7 -6 -14 -16 -13 -17 5 -12 11
4 27 2 35 -3 12 -8 10 -10 -10 -10 -22 -1 -23 -2 -7 -11 13 -8 22 -7 33 1 8 8
14 8 14 2 0 -6 -13 -21 -28 -34 -45 -37 -50 -56 -7 -21 46 35 91 82 84 85 -3
2 -34 31 -69 65 l-65 62 -60 -49z m51 21 c-4 -5 0 -11 6 -14 7 -3 3 -4 -9 -4
-17 1 -19 4 -11 14 12 15 22 18 14 4z m34 -31 c0 -5 -5 -10 -11 -10 -5 0 -7 5
-4 10 3 6 8 10 11 10 2 0 4 -4 4 -10z m26 -25 c-11 -8 -22 -12 -25 -9 -6 6 19
24 34 24 6 -1 1 -7 -9 -15z m-141 -15 c3 -5 -1 -10 -10 -10 -9 0 -13 5 -10 10
3 6 8 10 10 10 2 0 7 -4 10 -10z m168 -16 c-23 -17 -30 -17 -30 -1 0 6 11 13
24 13 22 2 23 1 6 -12z"/>
<path d="M3019 2103 l-24 -28 28 24 c25 23 32 31 24 31 -2 0 -14 -12 -28 -27z"/>
<path d="M2720 2078 c11 -12 20 -26 20 -30 0 -5 5 -6 10 -3 11 7 -27 54 -43
55 -4 0 1 -10 13 -22z"/>
<path d="M2840 2037 c0 -2 15 -16 33 -33 l32 -29 -29 33 c-28 30 -36 37 -36
29z"/>
<path d="M2233 2005 c-15 -13 -23 -25 -17 -25 6 0 17 7 24 15 7 8 16 12 21 9
5 -3 9 2 9 10 0 21 -4 20 -37 -9z"/>
<path d="M2495 2010 c3 -5 11 -10 16 -10 6 0 7 5 4 10 -3 6 -11 10 -16 10 -6
0 -7 -4 -4 -10z"/>
<path d="M2245 1980 c-16 -11 -25 -20 -19 -20 6 0 14 3 18 7 4 4 15 8 23 8 9
0 18 6 20 13 6 17 -7 15 -42 -8z"/>
<path d="M2006 1934 c-82 -50 -90 -59 -45 -55 9 1 19 -5 23 -14 5 -14 10 -14
34 7 25 20 26 25 14 37 -12 13 -12 16 4 28 17 12 20 11 26 -9 3 -13 6 -17 7
-10 1 7 6 10 11 7 17 -10 11 7 -7 22 -17 14 -17 14 0 9 10 -3 16 -2 12 3 -3 5
1 11 7 14 7 2 11 7 8 10 -3 2 -45 -19 -94 -49z"/>
<path d="M2455 1981 c-3 -5 -1 -12 5 -16 5 -3 10 1 10 9 0 18 -6 21 -15 7z"/>
<path d="M2287 1974 c-12 -13 -7 -20 13 -20 11 0 19 5 17 10 -4 13 -21 18 -30
10z"/>
<path d="M2245 1951 c-3 -5 -2 -12 3 -15 5 -3 9 1 9 9 0 17 -3 19 -12 6z"/>
<path d="M2336 1878 c-47 -38 -86 -74 -86 -79 0 -9 10 -3 45 29 7 6 17 12 20
12 4 0 18 9 32 20 14 11 22 20 17 20 -5 0 9 12 30 26 27 18 41 23 49 15 7 -7
3 -13 -14 -20 -36 -13 -55 -39 -41 -53 11 -11 17 0 13 25 0 4 2 7 7 8 4 0 15
2 25 4 14 3 13 -2 -7 -26 -21 -25 -23 -32 -13 -54 7 -14 15 -25 20 -25 10 0 9
18 -3 25 -5 3 -10 11 -10 17 0 7 6 6 15 -2 12 -10 15 -10 16 1 0 8 5 3 10 -10
9 -23 10 -24 25 -5 15 18 15 18 5 -2 -6 -12 -6 -26 0 -35 6 -9 9 -10 9 -2 0 7
16 -3 35 -23 32 -31 40 -31 36 2 -1 6 8 19 19 29 24 22 27 9 3 -17 -10 -12
-12 -18 -4 -18 7 0 9 -5 5 -12 -4 -7 -3 -8 5 -4 6 4 9 12 6 17 -4 5 1 12 9 15
12 5 13 10 5 26 -10 18 -12 19 -29 3 -11 -10 -20 -12 -24 -6 -4 5 1 14 10 19
13 7 7 16 -37 53 -29 24 -59 43 -66 41 -7 -1 -11 3 -8 10 2 7 -6 21 -19 30
-23 16 -25 15 -110 -54z m134 -20 c0 -18 -2 -20 -9 -8 -6 8 -7 18 -5 22 9 14
14 9 14 -14z m21 -5 c-12 -20 -14 -14 -5 12 4 9 9 14 11 11 3 -2 0 -13 -6 -23z
m52 -30 c-3 -7 -10 -13 -15 -13 -6 0 -8 7 -5 14 4 10 1 13 -9 9 -14 -5 -20 8
-8 20 10 10 42 -16 37 -30z m21 -18 c-4 -8 -11 -15 -17 -15 -7 0 -7 -4 1 -12
16 -16 15 -28 -1 -28 -14 0 -17 38 -4 58 11 17 28 15 21 -3z"/>
<path d="M2495 1930 c14 -15 21 -17 32 -9 7 6 13 14 13 16 0 3 -7 0 -15 -7
-12 -10 -16 -9 -21 4 -3 9 -11 16 -17 16 -5 0 -2 -9 8 -20z"/>
<path d="M2264 1918 l-19 -23 23 19 c21 18 27 26 19 26 -2 0 -12 -10 -23 -22z"/>
<path d="M2575 1900 c10 -11 20 -20 23 -20 3 0 -3 9 -13 20 -10 11 -20 20 -23
20 -3 0 3 -9 13 -20z"/>
<path d="M2275 1899 c-11 -17 1 -21 15 -4 8 9 8 15 2 15 -6 0 -14 -5 -17 -11z"/>
<path d="M2536 1891 c3 -3 11 -6 17 -6 7 -1 11 -7 9 -14 -1 -7 2 -10 7 -7 12
8 33 -18 23 -29 -4 -5 -1 -5 6 -1 11 6 8 14 -12 35 -15 15 -33 28 -41 28 -8 0
-12 -3 -9 -6z"/>
<path d="M2027 1862 c-16 -18 -16 -20 1 -35 10 -10 24 -17 30 -17 7 0 21 -15
32 -32 11 -18 20 -27 20 -20 0 7 4 11 9 8 5 -3 14 0 20 8 14 17 -9 39 -31 31
-8 -3 -21 2 -29 11 -12 16 -12 17 4 11 11 -4 16 -3 12 3 -3 6 -15 10 -25 10
-10 0 -22 5 -25 10 -4 6 -3 9 2 8 4 -2 9 1 11 7 6 18 -14 16 -31 -3z"/>
<path d="M2150 1832 c0 -6 5 -14 10 -17 6 -4 7 -11 4 -17 -4 -7 -2 -8 5 -4 9
6 9 12 -1 24 -7 10 -14 19 -15 21 -2 2 -3 -1 -3 -7z"/>
<path d="M2340 1831 c0 -6 4 -13 10 -16 6 -3 7 1 4 9 -7 18 -14 21 -14 7z"/>
<path d="M2373 1824 c4 -4 -2 -17 -13 -29 -18 -20 -19 -23 -5 -35 8 -7 15 -9
15 -5 0 4 7 2 15 -5 12 -10 15 -10 15 0 0 6 -9 14 -20 17 -11 3 -17 10 -14 15
3 5 16 2 30 -7 13 -9 24 -11 24 -5 0 6 -6 13 -14 16 -8 3 -13 11 -10 19 3 7
-3 15 -13 19 -9 4 -14 4 -10 0z"/>
<path d="M2305 1811 c-3 -5 -1 -12 5 -16 5 -3 10 1 10 9 0 18 -6 21 -15 7z"/>
<path d="M2220 1786 c0 -2 7 -9 15 -16 13 -11 14 -10 9 4 -5 14 -24 23 -24 12z"/>
<path d="M2200 1766 c0 -2 8 -10 18 -17 15 -13 16 -12 3 4 -13 16 -21 21 -21
13z"/>
<path d="M2429 1759 c-1 -8 -1 -20 0 -26 1 -8 -5 -10 -14 -7 -8 3 -15 4 -15 1
0 -15 30 -13 44 2 15 16 15 19 1 31 -12 10 -15 10 -16 -1z"/>
<path d="M2171 1746 c-9 -10 -8 -15 2 -19 8 -3 13 3 13 14 0 23 0 23 -15 5z"/>
<path d="M2250 1732 c0 -5 7 -9 15 -9 8 0 12 4 9 9 -3 4 -9 8 -15 8 -5 0 -9
-4 -9 -8z"/>
<path d="M2334 1728 c-4 -6 -3 -8 4 -4 6 3 13 -2 15 -11 4 -14 5 -13 6 5 1 23
-13 30 -25 10z"/>
<path d="M2375 1710 c0 -16 4 -32 9 -37 5 -5 6 -3 2 5 -4 6 -3 12 2 12 6 0 8
9 5 20 -8 31 -18 31 -18 0z"/>
<path d="M3041 1733 c-1 -6 8 -18 20 -26 l20 -15 -23 -18 c-13 -11 -30 -28
-38 -39 -8 -11 5 -2 27 19 23 21 41 44 40 50 -1 5 3 10 10 11 6 0 14 3 18 7 4
3 0 5 -9 4 -8 -1 -19 -5 -22 -9 -15 -15 -26 -6 -13 11 13 15 12 16 -3 4 -13
-10 -17 -10 -21 0 -4 9 -6 9 -6 1z"/>
<path d="M3060 1643 c-53 -54 -109 -114 -125 -133 -26 -30 10 6 199 200 17 16
28 30 25 30 -2 0 -47 -44 -99 -97z"/>
<path d="M2466 1711 c-12 -5 -15 -10 -9 -14 6 -4 16 0 23 8 14 17 13 17 -14 6z"/>
<path d="M2501 1704 c0 -11 3 -14 6 -6 3 7 2 16 -1 19 -3 4 -6 -2 -5 -13z"/>
<path d="M2530 1710 c0 -5 5 -10 11 -10 5 0 7 5 4 10 -3 6 -8 10 -11 10 -2 0
-4 -4 -4 -10z"/>
<path d="M2988 1693 c6 -2 9 -10 6 -15 -4 -7 -2 -8 5 -4 13 9 5 26 -12 25 -9
0 -8 -2 1 -6z"/>
<path d="M2470 1680 c-9 -6 -10 -10 -3 -10 6 0 15 5 18 10 8 12 4 12 -15 0z"/>
<path d="M2957 1641 c14 -17 33 -20 33 -5 0 3 -4 3 -9 0 -5 -3 -11 1 -15 9 -3
8 -10 15 -16 15 -5 0 -2 -9 7 -19z"/>
<path d="M2672 1566 c-40 -40 -42 -44 -25 -57 16 -12 17 -12 7 1 -10 12 -6 20
17 41 16 14 31 24 34 21 3 -3 5 0 5 7 0 8 6 11 16 7 14 -5 15 -4 4 9 -7 8 -13
15 -14 14 0 0 -20 -20 -44 -43z"/>
<path d="M2875 1589 c-11 -16 -1 -19 13 -3 7 8 8 14 3 14 -5 0 -13 -5 -16 -11z"/>
<path d="M2809 1513 l-24 -28 28 24 c25 23 32 31 24 31 -2 0 -14 -12 -28 -27z"/>
<path d="M2762 1467 c-8 -9 -8 -17 0 -27 8 -13 9 -12 5 1 -3 9 0 22 6 28 6 6
8 11 5 11 -3 0 -10 -6 -16 -13z"/>
<path d="M2595 1460 c-3 -6 1 -7 9 -4 18 7 21 14 7 14 -6 0 -13 -4 -16 -10z"/>
<path d="M2730 1426 c0 -2 8 -10 18 -17 15 -13 16 -12 3 4 -13 16 -21 21 -21
13z"/>
<path d="M2611 1313 c-1 -17 16 -25 25 -12 4 7 3 9 -4 5 -5 -3 -13 0 -15 6 -4
9 -6 10 -6 1z"/>
<path d="M2679 1253 c-13 -16 -12 -17 4 -4 16 13 21 21 13 21 -2 0 -10 -8 -17
-17z"/>
<path d="M4947 2119 c7 -7 15 -10 18 -7 3 3 -2 9 -12 12 -14 6 -15 5 -6 -5z"/>
<path d="M504 1258 c-4 -6 -3 -8 3 -5 6 4 16 0 23 -8 16 -19 30 -19 30 -1 0
23 -44 35 -56 14z"/>
<path d="M500 1226 c0 -11 8 -16 28 -15 15 0 21 3 12 6 -8 3 -21 10 -27 16 -9
7 -13 5 -13 -7z"/>
<path d="M374 1124 c3 -9 6 -18 6 -20 0 -12 21 -1 30 16 9 18 8 20 -16 20 -20
0 -25 -4 -20 -16z"/>
<path d="M284 1119 c-10 -17 14 -35 28 -21 9 9 8 12 -6 12 -9 0 -14 5 -11 10
3 6 4 10 1 10 -3 0 -8 -5 -12 -11z"/>
<path d="M700 1126 c0 -7 7 -19 15 -26 19 -16 41 1 32 24 -8 20 -47 21 -47 2z"/>
<path d="M1632 4824 c-8 -9 -11 -25 -8 -40 6 -21 9 -23 26 -14 23 12 25 29 8
52 -12 15 -15 15 -26 2z m26 -33 c3 -8 -1 -12 -9 -9 -7 2 -15 10 -17 17 -3 8
1 12 9 9 7 -2 15 -10 17 -17z"/>
<path d="M1700 4819 c0 -12 5 -19 12 -17 18 6 20 25 3 31 -10 5 -15 0 -15 -14z"/>
<path d="M1590 4806 c0 -32 10 -56 22 -56 6 0 7 8 3 18 -4 9 -7 27 -6 40 0 12
-4 22 -9 22 -6 0 -10 -11 -10 -24z"/>
<path d="M1412 4792 c-20 -13 -1 -86 23 -90 20 -4 20 -3 0 12 -17 14 -18 17
-5 27 11 8 12 12 3 16 -7 2 -13 11 -13 18 0 7 6 16 13 18 6 3 8 6 2 6 -5 0
-16 -3 -23 -7z"/>
<path d="M1453 4770 c4 -18 7 -39 7 -46 0 -8 3 -14 8 -14 11 0 2 79 -11 87 -7
4 -8 -5 -4 -27z"/>
<path d="M1532 4788 c-17 -17 -15 -58 2 -58 22 0 30 19 16 35 -9 11 -9 15 -1
15 6 0 11 5 11 10 0 14 -13 13 -28 -2z"/>
<path d="M1566 4782 c-2 -4 -1 -14 5 -22 7 -12 9 -10 9 8 0 23 -5 28 -14 14z"/>
<path d="M1488 4750 c5 -35 20 -41 17 -7 -4 35 -5 37 -13 37 -5 0 -7 -13 -4
-30z"/>
<path d="M1334 4715 c-3 -8 -4 -20 -1 -27 3 -7 6 -2 7 12 l1 25 10 -24 c11
-29 21 -24 12 7 -6 25 -21 29 -29 7z"/>
<path d="M1168 4708 c-6 -17 12 -88 22 -88 5 0 4 16 -2 36 -5 20 -7 42 -4 50
3 8 1 14 -3 14 -5 0 -11 -6 -13 -12z"/>
<path d="M1301 4708 c0 -7 4 -22 9 -33 8 -18 9 -17 9 7 1 15 -3 30 -9 33 -5 3
-10 0 -9 -7z"/>
<path d="M1220 4696 c0 -12 -5 -16 -15 -12 -23 8 -18 -8 10 -32 19 -17 25 -18
25 -7 0 8 -4 15 -10 15 -5 0 -10 5 -10 11 0 5 5 7 10 4 13 -8 13 5 0 25 -8 13
-10 12 -10 -4z"/>
<path d="M1276 4695 c4 -8 2 -15 -4 -15 -6 0 -13 6 -15 13 -3 6 -6 2 -6 -10
-1 -25 15 -39 22 -21 4 10 6 10 6 0 1 -7 5 -11 10 -8 10 7 2 56 -10 56 -5 0
-6 -7 -3 -15z"/>
<path d="M1551 4664 c0 -11 3 -14 6 -6 3 7 2 16 -1 19 -3 4 -6 -2 -5 -13z"/>
<path d="M1028 4655 c-7 -7 10 -65 23 -79 12 -14 10 12 -5 52 -6 18 -14 30
-18 27z"/>
<path d="M1080 4655 c0 -17 26 -55 37 -55 11 0 9 8 -7 30 -20 28 -30 36 -30
25z"/>
<path d="M1131 4653 c0 -4 4 -17 9 -28 8 -19 9 -19 9 2 1 12 -3 25 -9 28 -5 3
-10 3 -9 -2z"/>
<path d="M1480 4640 c0 -11 4 -20 9 -20 5 0 7 9 4 20 -3 11 -7 20 -9 20 -2 0
-4 -9 -4 -20z"/>
<path d="M1060 4639 c0 -8 7 -24 16 -35 14 -18 15 -18 8 6 -8 31 -24 50 -24
29z"/>
<path d="M1440 4640 c0 -5 5 -10 10 -10 6 0 10 5 10 10 0 6 -4 10 -10 10 -5 0
-10 -4 -10 -10z"/>
<path d="M953 4605 c-17 -18 -16 -27 2 -51 15 -18 16 -18 14 11 -2 47 1 52 16
25 10 -19 10 -27 2 -32 -8 -5 -6 -8 6 -8 19 0 22 22 7 51 -12 22 -30 24 -47 4z"/>
<path d="M1350 4603 c0 -16 -2 -16 -11 -3 -8 12 -10 12 -7 1 2 -8 11 -15 20
-17 11 -1 14 4 11 17 -7 24 -13 25 -13 2z"/>
<path d="M1540 4579 c0 -24 23 -21 28 4 2 10 -3 17 -12 17 -10 0 -16 -9 -16
-21z"/>
<path d="M910 4580 c12 -8 12 -10 -4 -16 -11 -4 -21 -2 -26 7 -15 23 -21 3 -8
-25 9 -21 17 -26 32 -22 12 3 24 6 27 6 3 0 4 14 1 30 -3 19 -10 30 -21 30
-14 0 -14 -2 -1 -10z m5 -40 c-3 -5 -10 -10 -16 -10 -5 0 -9 5 -9 10 0 6 7 10
16 10 8 0 12 -4 9 -10z"/>
<path d="M1276 4575 c4 -8 8 -15 10 -15 2 0 4 7 4 15 0 8 -4 15 -10 15 -5 0
-7 -7 -4 -15z"/>
<path d="M830 4571 c0 -22 20 -61 32 -61 9 0 9 3 0 12 -7 7 -12 22 -12 35 0
13 -4 23 -10 23 -5 0 -10 -4 -10 -9z"/>
<path d="M1480 4571 c0 -6 5 -13 10 -16 6 -3 10 1 10 9 0 9 -4 16 -10 16 -5 0
-10 -4 -10 -9z"/>
<path d="M1201 4554 c0 -11 3 -14 6 -6 3 7 2 16 -1 19 -3 4 -6 -2 -5 -13z"/>
<path d="M1429 4563 c-18 -4 -15 -43 3 -43 5 0 6 5 3 10 -4 6 -1 17 5 25 7 8
11 14 9 14 -2 -1 -11 -3 -20 -6z"/>
<path d="M772 4551 c-8 -4 -12 -19 -10 -32 2 -18 9 -24 28 -24 28 0 39 27 20
50 -14 17 -20 18 -38 6z m38 -37 c0 -16 -26 -19 -35 -4 -4 6 -4 18 -1 27 5 12
9 13 21 3 8 -7 15 -19 15 -26z"/>
<path d="M630 4538 c0 -35 14 -88 22 -88 6 0 6 13 2 33 -4 17 -8 40 -8 50 0 9
-4 17 -8 17 -4 0 -8 -6 -8 -12z"/>
<path d="M1380 4534 c0 -8 5 -12 10 -9 6 3 10 10 10 16 0 5 -4 9 -10 9 -5 0
-10 -7 -10 -16z"/>
<path d="M733 4524 c5 -25 -8 -52 -20 -41 -4 5 -2 12 5 16 10 6 10 10 -2 20
-23 20 -55 -2 -49 -34 3 -14 9 -25 14 -25 5 0 7 11 3 25 -4 15 -2 25 5 25 6 0
11 -9 11 -19 0 -23 16 -36 25 -21 4 6 11 8 16 5 13 -8 11 37 -2 55 -9 12 -10
11 -6 -6z"/>
<path d="M1100 4510 c0 -19 11 -26 23 -14 8 8 -3 34 -14 34 -5 0 -9 -9 -9 -20z"/>
<path d="M589 4506 c6 -7 9 -20 6 -28 -3 -8 1 -21 10 -28 13 -11 15 -9 15 9 0
28 -17 61 -32 61 -7 0 -7 -4 1 -14z"/>
<path d="M1340 4505 c0 -8 2 -15 4 -15 2 0 6 7 10 15 3 8 1 15 -4 15 -6 0 -10
-7 -10 -15z"/>
<path d="M510 4504 c0 -23 24 -94 32 -94 6 0 8 10 4 23 -4 12 -9 34 -12 50 -4
15 -10 27 -15 27 -5 0 -9 -3 -9 -6z"/>
<path d="M550 4496 c0 -24 22 -76 30 -71 10 6 -9 85 -21 85 -5 0 -9 -6 -9 -14z"/>
<path d="M1075 4500 c3 -5 8 -10 11 -10 2 0 4 5 4 10 0 6 -5 10 -11 10 -5 0
-7 -4 -4 -10z"/>
<path d="M1280 4501 c0 -6 4 -13 10 -16 6 -3 7 1 4 9 -7 18 -14 21 -14 7z"/>
<path d="M1027 4480 c-3 -11 -1 -20 4 -20 5 0 9 9 9 20 0 11 -2 20 -4 20 -2 0
-6 -9 -9 -20z"/>
<path d="M1050 4486 c0 -9 5 -16 10 -16 6 0 10 4 10 9 0 6 -4 13 -10 16 -5 3
-10 -1 -10 -9z"/>
<path d="M1003 4475 c-3 -9 -3 -18 -1 -21 3 -3 8 4 11 16 6 23 -1 27 -10 5z"/>
<path d="M1153 4483 c-7 -2 -13 -9 -13 -15 0 -6 6 -6 15 2 13 10 15 9 15 -9 0
-12 -4 -20 -9 -17 -5 4 -7 -3 -4 -14 3 -13 14 -20 29 -20 31 0 34 9 18 48 -14
31 -24 36 -51 25z"/>
<path d="M970 4459 c0 -11 5 -17 10 -14 6 3 10 13 10 21 0 8 -4 14 -10 14 -5
0 -10 -9 -10 -21z"/>
<path d="M935 4460 c-3 -5 -3 -15 1 -22 5 -8 1 -9 -12 -4 -14 5 -16 4 -7 -4 8
-9 16 -9 30 -1 11 7 13 10 4 11 -11 0 -11 3 -1 15 8 9 9 15 2 15 -6 0 -14 -4
-17 -10z"/>
<path d="M4744 4456 c11 -9 27 -16 35 -16 21 0 2 16 -29 24 -24 7 -24 6 -6 -8z"/>
<path d="M880 4430 c0 -12 7 -20 16 -20 13 0 14 3 5 13 -6 8 -8 17 -4 20 3 4
1 7 -5 7 -7 0 -12 -9 -12 -20z"/>
<path d="M827 4425 c-8 -8 -17 -11 -21 -8 -3 4 -7 -5 -7 -18 -1 -17 -3 -19 -6
-6 -5 21 -23 23 -23 3 0 -23 22 -31 35 -13 7 9 14 14 18 11 3 -3 9 5 13 18 7
22 7 22 15 3 7 -19 8 -19 8 3 1 25 -11 28 -32 7z"/>
<path d="M746 4395 c-4 -11 -2 -22 6 -26 17 -11 20 -6 10 21 -8 21 -9 22 -16
5z"/>
<path d="M700 4391 c0 -22 13 -41 29 -40 10 0 11 2 4 6 -7 2 -13 11 -13 18 0
8 -4 17 -10 20 -5 3 -10 2 -10 -4z"/>
<path d="M648 4368 c15 -15 16 -31 0 -22 -7 4 -8 3 -4 -4 4 -7 2 -12 -3 -12
-6 0 -11 9 -11 20 0 11 -4 20 -10 20 -15 0 -12 -26 4 -39 11 -9 20 -10 35 -1
17 9 19 15 11 30 -6 11 -16 20 -22 20 -9 0 -9 -3 0 -12z"/>
<path d="M567 4353 c-8 -13 2 -43 14 -43 10 0 10 8 0 34 -5 12 -10 16 -14 9z"/>
<path d="M380 4330 c0 -11 -4 -20 -8 -20 -14 0 -11 -38 4 -44 8 -3 14 -11 14
-17 0 -8 -4 -8 -15 1 -9 8 -15 9 -15 2 0 -16 16 -23 34 -16 11 4 13 11 7 23
-5 9 -8 33 -7 54 1 20 -2 37 -6 37 -5 0 -8 -9 -8 -20z"/>
<path d="M1207 4340 c10 -11 10 -17 0 -29 -7 -10 -2 -8 11 3 12 11 22 21 22
24 0 3 -3 2 -7 -1 -3 -4 -13 -1 -22 5 -13 10 -14 10 -4 -2z"/>
<path d="M503 4320 c2 -13 9 -26 15 -28 16 -5 14 9 -4 33 -14 19 -14 19 -11
-5z"/>
<path d="M530 4335 c0 -15 18 -40 24 -34 3 3 -1 14 -9 25 -8 10 -14 15 -15 9z"/>
<path d="M235 4320 c-2 -3 5 -7 16 -7 10 -1 19 2 19 6 0 9 -29 10 -35 1z"/>
<path d="M411 4315 c-1 -38 11 -65 30 -65 11 0 19 5 19 12 0 6 -3 8 -7 4 -4
-4 -15 10 -25 31 -11 26 -17 31 -17 18z"/>
<path d="M470 4313 c0 -11 7 -27 16 -34 15 -12 16 -11 9 11 -10 35 -25 49 -25
23z"/>
<path d="M440 4301 c0 -5 5 -13 10 -16 6 -3 10 -2 10 4 0 5 -4 13 -10 16 -5 3
-10 2 -10 -4z"/>
<path d="M1035 4300 c3 -5 8 -10 11 -10 2 0 4 5 4 10 0 6 -5 10 -11 10 -5 0
-7 -4 -4 -10z"/>
<path d="M313 4285 c-3 -9 2 -24 11 -34 14 -15 14 -20 4 -24 -8 -3 -6 -6 6 -6
14 -1 17 4 12 22 -3 12 -6 30 -6 40 0 21 -18 23 -27 2z"/>
<path d="M1170 4290 c0 -5 5 -10 10 -10 6 0 10 5 10 10 0 6 -4 10 -10 10 -5 0
-10 -4 -10 -10z"/>
<path d="M1212 4293 c-10 -4 -10 -8 -1 -19 8 -10 8 -14 0 -14 -6 0 -8 -11 -5
-29 4 -20 1 -34 -14 -47 -10 -11 -22 -26 -25 -34 -4 -11 -6 -10 -6 4 -1 10 9
27 21 37 11 11 19 22 15 25 -8 9 -58 -27 -54 -40 2 -6 -3 -16 -12 -23 -14 -11
-14 -12 2 -13 10 0 16 -4 13 -9 -4 -5 0 -11 6 -14 7 -2 10 -7 7 -11 -4 -4 -14
0 -22 9 -9 8 -18 11 -22 6 -3 -5 0 -13 5 -16 7 -5 5 -12 -7 -22 -13 -10 -15
-16 -5 -19 6 -3 10 -10 6 -15 -6 -10 19 -12 29 -2 4 3 1 13 -6 22 -10 14 -10
14 5 3 28 -22 188 23 188 53 0 8 -3 15 -7 15 -5 0 -9 12 -10 27 0 15 -6 29
-12 31 -5 2 -7 10 -4 18 3 8 0 14 -6 14 -6 0 -10 3 -10 8 3 20 -2 23 -18 11
-15 -13 -15 -12 0 16 15 31 15 31 -11 32 -15 1 -33 -1 -40 -4z"/>
<path d="M258 4283 c-21 -5 -21 -5 -6 -54 11 -39 21 -48 33 -29 3 6 2 10 -4
10 -6 0 -8 6 -5 14 3 8 1 17 -5 21 -16 9 -13 25 4 25 8 0 15 -9 15 -19 0 -11
5 -23 10 -26 13 -8 13 6 0 39 -10 26 -12 27 -42 19z"/>
<path d="M1164 4245 c-3 -14 -11 -25 -18 -25 -6 0 -19 -7 -29 -15 -15 -11 -17
-17 -7 -32 10 -15 11 -16 6 -1 -4 13 5 22 30 34 22 11 33 22 30 30 -3 8 -1 14
4 14 6 0 10 5 10 10 0 21 -20 9 -26 -15z"/>
<path d="M1086 4241 c-4 -5 3 -7 14 -4 23 6 26 13 6 13 -8 0 -17 -4 -20 -9z"/>
<path d="M770 4219 c0 -5 5 -7 10 -4 6 3 10 8 10 11 0 2 -4 4 -10 4 -5 0 -10
-5 -10 -11z"/>
<path d="M1026 4221 c-3 -4 6 -6 19 -3 14 2 25 6 25 8 0 8 -39 4 -44 -5z"/>
<path d="M792 4208 c-20 -20 -14 -37 11 -31 19 4 20 3 5 -7 -20 -12 -24 -40
-7 -40 5 0 8 -4 5 -9 -4 -5 0 -12 6 -14 9 -4 9 -6 1 -6 -8 -1 -5 -23 9 -73 33
-116 27 -109 70 -88 20 9 52 20 72 24 47 9 126 45 126 57 0 6 5 7 10 4 13 -8
13 1 -1 26 -13 25 -50 40 -66 27 -8 -6 -20 -5 -34 2 -18 10 -24 9 -31 -4 -11
-20 -24 -20 -32 0 -3 8 -2 12 4 9 6 -3 10 -2 10 4 0 5 8 12 18 14 9 3 6 5 -8
4 -35 -3 -41 15 -6 19 36 4 47 14 15 15 l-24 0 23 10 c15 5 20 13 16 21 -6 9
-9 9 -12 0 -2 -7 -12 -12 -22 -12 -10 0 -22 -5 -26 -11 -5 -8 -10 -6 -16 5
-12 21 -25 20 -32 -2 -6 -19 -42 -27 -51 -11 -4 5 -11 6 -17 3 -7 -5 -8 -2 -4
5 5 7 11 10 14 7 3 -3 12 -1 19 6 11 9 16 9 23 -3 7 -10 9 -8 7 8 -1 16 -5 19
-17 14 -8 -4 -26 -2 -39 5 -21 11 -21 12 -5 16 12 2 15 6 8 10 -6 4 -16 2 -22
-4z m65 -94 c-3 -3 -12 -4 -19 -1 -8 3 -5 6 6 6 11 1 17 -2 13 -5z m49 -21
c20 -26 18 -54 -3 -46 -12 5 -14 3 -9 -8 6 -11 4 -10 -6 1 -7 8 -19 15 -25 16
-46 4 -46 4 -33 19 15 19 34 20 27 2 -4 -10 4 -14 24 -14 15 0 26 4 23 9 -3 4
-12 8 -19 8 -9 0 -12 6 -9 15 8 19 14 19 30 -2z m174 -42 c0 -6 -4 -12 -8 -15
-5 -3 -9 1 -9 9 0 8 4 15 9 15 4 0 8 -4 8 -9z m-217 -18 c-7 -2 -19 -2 -25 0
-7 3 -2 5 12 5 14 0 19 -2 13 -5z"/>
<path d="M1050 4189 c0 -5 5 -7 10 -4 6 3 10 8 10 11 0 2 -4 4 -10 4 -5 0 -10
-5 -10 -11z"/>
<path d="M908 4183 c7 -3 16 -2 19 1 4 3 -2 6 -13 5 -11 0 -14 -3 -6 -6z"/>
<path d="M1006 4171 c-4 -5 3 -7 14 -4 23 6 26 13 6 13 -8 0 -17 -4 -20 -9z"/>
<path d="M1054 4165 c-10 -8 -28 -15 -39 -16 -16 -1 -17 -2 -3 -6 16 -4 78 22
78 32 0 9 -16 5 -36 -10z"/>
<path d="M1050 4121 c-25 -11 -49 -16 -54 -13 -5 3 -6 0 -3 -5 8 -12 117 15
117 29 0 11 -8 10 -60 -11z"/>
<path d="M1091 4101 c-8 -6 -9 -11 -3 -15 6 -3 14 -1 17 5 9 14 2 20 -14 10z"/>
<path d="M943 3673 c-20 -4 -23 -11 -23 -48 l0 -44 40 17 c30 13 38 22 35 37
-2 11 -4 26 -4 33 -1 12 -7 13 -48 5z"/>
<path d="M803 3641 c-53 -14 -60 -19 -52 -34 6 -10 12 -27 14 -39 7 -37 17
-34 14 4 -4 47 9 61 17 19 10 -48 24 -48 25 1 l1 43 13 -40 c8 -23 14 -32 14
-20 1 12 4 16 9 9 4 -6 16 -13 27 -16 18 -4 20 -1 17 44 -4 55 -3 54 -99 29z
m44 -33 c-3 -8 -6 -5 -6 6 -1 11 2 17 5 13 3 -3 4 -12 1 -19z"/>
<path d="M713 3609 c9 -5 17 -20 17 -32 0 -12 5 -29 11 -37 7 -11 8 -4 3 25
-8 50 -11 55 -32 55 -16 -1 -16 -1 1 -11z"/>
<path d="M643 3603 c-31 -6 -29 -31 2 -43 14 -5 30 -20 36 -32 10 -25 11 -27
-6 45 -8 36 15 15 25 -23 6 -22 13 -40 16 -40 9 0 -9 85 -20 92 -11 8 -16 8
-53 1z m2 -23 c3 -5 1 -10 -4 -10 -6 0 -11 5 -11 10 0 6 2 10 4 10 3 0 8 -4
11 -10z"/>
<path d="M630 3521 c0 -12 4 -21 10 -21 5 0 7 7 4 15 -4 8 -1 15 4 15 6 0 13
-8 16 -17 4 -14 4 -14 3 2 -3 28 -37 33 -37 6z"/>
<path d="M1235 3533 c-11 -3 -24 -9 -30 -15 -6 -6 -3 -7 9 -2 10 4 21 2 26 -5
5 -9 9 -6 13 8 3 12 4 20 4 20 -1 -1 -11 -3 -22 -6z"/>
<path d="M1605 3493 c4 -10 14 -37 22 -60 8 -24 19 -43 25 -43 6 0 7 8 4 17
-4 9 -10 36 -13 60 -5 34 -10 43 -25 43 -15 0 -18 -4 -13 -17z"/>
<path d="M1505 3473 c-18 -17 -15 -64 6 -90 16 -18 49 -16 65 5 12 15 15 15
24 2 17 -25 11 5 -10 54 -23 55 -43 62 -25 9 10 -28 10 -41 1 -55 -13 -22 -20
-22 -40 -2 -22 21 -20 70 2 83 9 6 12 11 5 11 -6 0 -19 -7 -28 -17z"/>
<path d="M1405 3469 c-11 -16 -2 -17 25 -2 24 12 24 13 3 13 -12 0 -25 -5 -28
-11z"/>
<path d="M345 3425 c-55 -13 -154 -36 -220 -52 l-120 -28 -3 -33 c-2 -18 3
-41 10 -50 9 -11 10 -14 1 -8 -8 4 -13 2 -13 -7 0 -10 7 -13 19 -10 13 3 17
11 13 26 -3 12 -10 25 -16 29 -7 5 -7 8 2 8 7 0 17 -11 22 -25 5 -14 12 -25
15 -25 4 0 75 18 159 39 85 22 174 43 200 46 50 8 51 10 38 76 l-7 36 -100
-22z m-58 -77 c-3 -8 -6 -5 -6 6 -1 11 2 17 5 13 3 -3 4 -12 1 -19z m-57 -8
c0 -5 -2 -10 -4 -10 -3 0 -8 5 -11 10 -3 6 -1 10 4 10 6 0 11 -4 11 -10z m-60
-4 c0 -3 -4 -8 -10 -11 -5 -3 -10 -1 -10 4 0 6 5 11 10 11 6 0 10 -2 10 -4z
m-96 -61 c3 -8 1 -15 -4 -15 -6 0 -10 7 -10 15 0 8 2 15 4 15 2 0 6 -7 10 -15z
m51 5 c-3 -5 -14 -10 -23 -9 -14 0 -13 2 3 9 27 11 27 11 20 0z"/>
<path d="M1320 3436 c0 -2 9 -6 20 -9 11 -3 20 -1 20 4 0 5 -9 9 -20 9 -11 0
-20 -2 -20 -4z"/>
<path d="M1406 3405 c8 -57 12 -67 25 -60 8 5 8 10 0 18 -6 6 -11 20 -11 32 0
11 -5 27 -10 35 -6 10 -8 2 -4 -25z"/>
<path d="M1455 3395 c0 -31 4 -45 13 -45 10 0 12 9 7 33 -12 54 -21 59 -20 12z"/>
<path d="M3760 3405 c13 -14 26 -25 28 -25 3 0 -5 11 -18 25 -13 14 -26 25
-28 25 -3 0 5 -11 18 -25z"/>
<path d="M1246 3405 c-8 -9 -13 -23 -10 -33 20 -62 28 -73 47 -70 11 2 22 9
23 16 1 7 0 8 -3 2 -7 -15 -30 -12 -37 6 -10 26 -7 34 12 27 11 -4 8 1 -8 15
-21 18 -23 23 -10 31 8 5 18 7 22 5 4 -3 8 0 8 5 0 16 -26 13 -44 -4z"/>
<path d="M1153 3399 c-8 -8 -9 -18 -3 -29 5 -10 11 -36 12 -59 3 -43 5 -45 33
-35 13 5 14 8 3 15 -7 5 -17 33 -23 64 -8 44 -13 54 -22 44z"/>
<path d="M3745 3375 c17 -14 34 -25 39 -25 6 0 -5 11 -24 25 -43 32 -54 32
-15 0z"/>
<path d="M1340 3380 c-8 -5 -12 -12 -9 -15 4 -3 12 1 19 10 14 17 11 19 -10 5z"/>
<path d="M952 3368 c2 -6 10 -14 16 -16 7 -2 10 2 6 12 -7 18 -28 22 -22 4z"/>
<path d="M1094 3348 c8 -13 14 -38 12 -55 -1 -23 2 -33 12 -33 10 0 12 8 7 33
-11 50 -24 77 -35 77 -6 0 -4 -9 4 -22z"/>
<path d="M891 3338 c0 -32 32 -130 42 -129 4 1 15 1 25 1 9 0 25 7 34 14 16
11 16 17 6 47 l-13 34 -5 -40 c-8 -65 -33 -57 -56 17 -10 35 -18 66 -16 71 1
4 -2 7 -8 7 -5 0 -10 -10 -9 -22z"/>
<path d="M1365 3340 c-4 -6 -11 -8 -16 -5 -5 4 -9 1 -9 -4 0 -13 20 -14 39 -2
8 5 9 11 3 15 -6 3 -13 2 -17 -4z"/>
<path d="M3837 3339 c7 -7 15 -10 18 -7 3 3 -2 9 -12 12 -14 6 -15 5 -6 -5z"/>
<path d="M960 3320 c-14 -10 -23 -21 -20 -23 3 -3 16 3 29 14 31 25 23 33 -9
9z"/>
<path d="M1044 3295 c8 -35 15 -45 31 -45 16 0 17 2 6 9 -8 5 -15 17 -16 28
-3 25 -16 53 -24 53 -4 0 -3 -20 3 -45z"/>
<path d="M545 3294 l-50 -13 48 5 c47 5 48 5 62 -30 9 -20 20 -36 25 -36 6 0
3 14 -5 31 -13 24 -14 34 -4 45 15 18 -6 18 -76 -2z"/>
<path d="M3810 3306 c0 -2 7 -7 16 -10 8 -3 12 -2 9 4 -6 10 -25 14 -25 6z"/>
<path d="M818 3280 c12 -5 22 -17 22 -27 1 -19 22 -53 34 -53 10 0 -23 73 -37
82 -7 4 -19 7 -27 7 -8 0 -5 -4 8 -9z"/>
<path d="M3804 3281 c6 -9 66 -33 66 -26 0 4 -60 35 -67 35 -2 0 -2 -4 1 -9z"/>
<path d="M660 3276 c0 -2 9 -25 21 -51 11 -26 18 -56 16 -67 -4 -14 -2 -18 10
-14 8 3 16 6 17 6 10 0 -38 119 -50 124 -8 3 -14 4 -14 2z"/>
<path d="M742 3272 c-10 -7 -10 -20 -1 -60 9 -43 14 -52 32 -52 13 0 17 3 11
8 -15 9 -37 89 -29 102 7 12 4 12 -13 2z"/>
<path d="M514 3248 c3 -13 6 -30 7 -38 0 -8 4 -4 8 10 9 28 4 50 -11 50 -6 0
-8 -10 -4 -22z"/>
<path d="M630 3185 c0 -17 -5 -36 -12 -43 -9 -9 -9 -12 3 -11 7 0 21 3 31 7
15 6 15 10 -2 42 l-19 35 -1 -30z"/>
<path d="M807 3191 c3 -12 9 -21 14 -21 14 0 11 16 -5 29 -12 10 -13 8 -9 -8z"/>
<path d="M995 3179 c-4 -6 -5 -12 -2 -15 2 -3 7 2 10 11 7 17 1 20 -8 4z"/>
<path d="M4737 3183 c-11 -10 -8 -51 3 -58 6 -4 17 -2 24 5 11 8 15 8 19 -2 6
-18 13 -8 20 30 4 21 3 31 -3 27 -6 -3 -10 -14 -10 -23 0 -13 -3 -12 -16 6
-16 23 -26 27 -37 15z m26 -33 c-3 -11 -9 -20 -14 -20 -10 0 -12 33 -3 43 12
12 22 -3 17 -23z"/>
<path d="M4995 3178 c-2 -7 -5 -26 -8 -43 -2 -16 -8 -38 -12 -48 -6 -13 -4
-16 9 -11 9 3 16 15 16 26 0 11 5 18 13 16 6 -3 12 -10 12 -15 0 -6 3 -15 8
-19 8 -9 10 18 1 40 -3 8 -12 12 -21 9 -11 -4 -14 -2 -11 8 3 8 11 13 17 12 6
-2 11 2 11 7 0 6 -5 10 -11 10 -5 0 -7 5 -4 10 3 6 1 10 -5 10 -6 0 -12 -6
-15 -12z"/>
<path d="M3967 3166 c-17 -13 -17 -14 0 -20 10 -4 14 -4 10 0 -4 4 -2 13 4 21
14 17 9 16 -14 -1z"/>
<path d="M4822 3174 c4 -3 2 -19 -3 -37 -5 -18 -5 -27 0 -21 17 17 24 64 10
64 -7 0 -10 -3 -7 -6z"/>
<path d="M4860 3161 c0 -11 -3 -26 -6 -35 -3 -9 -2 -16 4 -16 5 0 12 16 14 35
2 19 0 35 -4 35 -4 0 -8 -9 -8 -19z"/>
<path d="M4897 3164 c-9 -9 -9 -48 -1 -57 8 -8 34 3 34 15 0 6 -6 5 -15 -2
-13 -11 -15 -8 -15 14 0 26 23 37 33 16 3 -6 4 -5 3 2 -3 15 -28 22 -39 12z"/>
<path d="M5060 3134 c-16 -42 -10 -51 9 -15 10 19 21 29 25 23 3 -6 2 -13 -4
-17 -5 -3 -10 -15 -10 -25 0 -20 17 -36 28 -25 3 3 0 10 -8 15 -11 7 -11 11
-1 24 7 9 11 23 7 31 -9 24 -36 18 -46 -11z"/>
<path d="M540 3130 c0 -11 7 -20 15 -20 17 0 18 2 9 24 -9 23 -24 20 -24 -4z"/>
<path d="M3916 3122 c-6 -10 44 -36 52 -27 3 3 0 5 -6 5 -6 0 -17 7 -26 15 -8
8 -17 11 -20 7z"/>
<path d="M3930 3055 c14 -8 30 -14 35 -14 6 0 -1 6 -15 14 -14 8 -29 14 -35
14 -5 0 1 -6 15 -14z"/>
<path d="M4625 3004 c-6 -33 -1 -54 9 -43 10 10 17 79 8 79 -5 0 -13 -16 -17
-36z"/>
<path d="M4667 3023 c-3 -10 -8 -28 -12 -40 -4 -16 -2 -23 8 -23 8 0 15 6 14
13 -1 33 4 57 12 57 5 0 7 -19 4 -42 -4 -30 -2 -40 5 -33 6 6 12 26 14 45 2
30 0 35 -19 38 -14 2 -23 -3 -26 -15z"/>
<path d="M4740 3009 c0 -11 -5 -29 -10 -40 -9 -15 -7 -19 6 -19 10 0 14 6 11
14 -8 19 3 28 19 15 7 -6 10 -17 7 -25 -3 -8 -1 -14 5 -14 22 0 22 34 1 57
-13 12 -18 23 -12 23 6 0 16 -7 23 -15 15 -19 23 -14 14 9 -4 10 -17 16 -35
16 -23 0 -29 -5 -29 -21z"/>
<path d="M4900 2975 c0 -25 5 -45 10 -45 6 0 10 20 10 45 0 25 -4 45 -10 45
-5 0 -10 -20 -10 -45z"/>
<path d="M4830 2991 c-15 -28 -13 -39 11 -51 21 -12 49 1 49 23 0 7 -4 7 -12
-1 -20 -20 -40 -14 -36 11 2 16 9 21 26 20 13 -2 21 1 17 7 -10 17 -44 11 -55
-9z"/>
<path d="M4946 2969 c-4 -23 -4 -44 -2 -47 7 -6 26 44 26 69 0 35 -17 19 -24
-22z"/>
<path d="M499 2986 c-2 -2 -86 -22 -187 -45 -101 -22 -191 -45 -200 -50 -33
-20 88 -12 217 14 187 38 201 43 201 65 0 18 -19 27 -31 16z"/>
<path d="M4997 2983 c-11 -10 -8 -63 3 -63 6 0 10 14 10 30 0 19 5 30 14 30
11 0 13 -7 6 -30 -5 -16 -5 -30 0 -30 9 0 20 51 13 62 -5 10 -37 10 -46 1z"/>
<path d="M5070 2982 c0 -5 7 -9 15 -9 8 0 15 4 15 9 0 4 -7 8 -15 8 -8 0 -15
-4 -15 -8z"/>
<path d="M3960 2950 c0 -5 10 -10 23 -10 18 0 19 2 7 10 -19 13 -30 13 -30 0z"/>
<path d="M5060 2934 c0 -12 7 -24 15 -28 8 -3 15 -1 15 4 0 6 -5 10 -10 10 -7
0 -7 6 -1 18 8 14 6 19 -5 19 -8 0 -14 -10 -14 -23z"/>
<path d="M4306 2915 c-9 -26 -7 -32 5 -12 6 10 9 21 6 23 -2 3 -7 -2 -11 -11z"/>
<path d="M332 2875 c-50 -9 -68 -25 -41 -34 6 -2 9 1 6 6 -4 6 4 8 20 5 18 -3
24 -1 19 7 -4 6 -3 11 3 11 5 0 11 -5 13 -12 4 -10 14 -9 46 0 23 7 42 17 42
23 0 11 -32 9 -108 -6z"/>
<path d="M1096 2875 c-3 -9 0 -15 9 -15 9 0 12 6 9 15 -4 8 -7 15 -9 15 -2 0
-5 -7 -9 -15z"/>
<path d="M4286 2865 c-9 -26 -7 -32 5 -12 6 10 9 21 6 23 -2 3 -7 -2 -11 -11z"/>
<path d="M186 2851 c-3 -4 8 -7 25 -5 18 2 28 0 24 -6 -3 -6 1 -7 9 -4 9 3 16
10 16 15 0 12 -67 12 -74 0z"/>
<path d="M4812 2845 c7 -8 302 -54 307 -49 10 9 -11 14 -136 34 -133 20 -181
24 -171 15z"/>
<path d="M1105 2820 c-3 -5 -1 -10 4 -10 6 0 11 5 11 10 0 6 -2 10 -4 10 -3 0
-8 -4 -11 -10z"/>
<path d="M4236 2745 c-9 -26 -7 -32 5 -12 6 10 9 21 6 23 -2 3 -7 -2 -11 -11z"/>
<path d="M4553 2677 c0 -18 50 -34 55 -18 6 17 22 13 22 -6 0 -13 3 -14 12 -5
9 9 14 7 24 -6 12 -16 13 -15 14 4 0 16 -8 23 -32 27 -18 3 -47 9 -64 12 -24
5 -31 3 -31 -8z"/>
<path d="M1105 2620 c-3 -5 -1 -10 4 -10 6 0 11 5 11 10 0 6 -2 10 -4 10 -3 0
-8 -4 -11 -10z"/>
<path d="M1070 2609 c0 -5 5 -7 10 -4 6 3 10 8 10 11 0 2 -4 4 -10 4 -5 0 -10
-5 -10 -11z"/>
<path d="M1038 2603 c7 -3 16 -2 19 1 4 3 -2 6 -13 5 -11 0 -14 -3 -6 -6z"/>
<path d="M4655 2580 c3 -6 1 -10 -6 -10 -7 0 -10 -3 -6 -6 3 -3 13 -2 22 4 16
8 16 9 1 15 -10 4 -15 3 -11 -3z"/>
<path d="M842 2564 c-11 -12 -10 -14 3 -14 8 0 15 -4 15 -8 0 -4 9 -8 20 -8
11 0 20 4 20 8 0 4 -9 8 -19 8 -11 0 -21 6 -23 14 -3 12 -5 12 -16 0z"/>
<path d="M1050 2569 c0 -5 5 -7 10 -4 6 3 10 8 10 11 0 2 -4 4 -10 4 -5 0 -10
-5 -10 -11z"/>
<path d="M975 2560 c-3 -5 -2 -10 4 -10 5 0 13 5 16 10 3 6 2 10 -4 10 -5 0
-13 -4 -16 -10z"/>
<path d="M780 2550 c0 -5 5 -10 11 -10 5 0 7 5 4 10 -3 6 -8 10 -11 10 -2 0
-4 -4 -4 -10z"/>
<path d="M910 2550 c0 -5 7 -7 15 -4 8 4 15 8 15 10 0 2 -7 4 -15 4 -8 0 -15
-4 -15 -10z"/>
<path d="M4625 2539 c4 -5 16 -9 27 -9 26 0 19 9 -11 15 -12 2 -19 0 -16 -6z"/>
<path d="M650 2531 c0 -4 11 -6 25 -3 14 2 25 6 25 8 0 2 -11 4 -25 4 -14 0
-25 -4 -25 -9z"/>
<path d="M820 2530 c-8 -5 -10 -10 -5 -10 6 0 17 5 25 10 8 5 11 10 5 10 -5 0
-17 -5 -25 -10z"/>
<path d="M975 2530 c-8 -13 5 -13 25 0 13 8 13 10 -2 10 -9 0 -20 -4 -23 -10z"/>
<path d="M4615 2520 c-7 -12 18 -24 37 -18 8 3 5 9 -9 16 -14 8 -24 9 -28 2z"/>
<path d="M818 2503 c6 -2 18 -2 25 0 6 3 1 5 -13 5 -14 0 -19 -2 -12 -5z"/>
<path d="M743 2490 c-13 -5 -23 -11 -23 -14 0 -7 40 6 46 15 6 10 6 10 -23 -1z"/>
<path d="M856 2492 c-3 -5 1 -9 9 -9 8 0 12 4 9 9 -3 4 -7 8 -9 8 -2 0 -6 -4
-9 -8z"/>
<path d="M820 2480 c-13 -8 -12 -10 3 -10 9 0 17 5 17 10 0 12 -1 12 -20 0z"/>
<path d="M690 2471 c-8 -6 -18 -7 -22 -5 -4 3 -8 0 -8 -5 0 -15 13 -14 36 4
21 16 17 20 -6 6z"/>
<path d="M4635 2470 c3 -5 10 -10 16 -10 5 0 9 5 9 10 0 6 -7 10 -16 10 -8 0
-12 -4 -9 -10z"/>
<path d="M740 2460 c-11 -8 -7 -9 15 -4 37 8 45 14 19 14 -10 0 -26 -5 -34
-10z"/>
<path d="M870 2460 c-11 -8 -8 -9 14 -6 16 3 31 8 34 11 10 9 -33 5 -48 -5z"/>
<path d="M1088 2453 c7 -3 16 -2 19 1 4 3 -2 6 -13 5 -11 0 -14 -3 -6 -6z"/>
<path d="M778 2443 c7 -3 16 -2 19 1 4 3 -2 6 -13 5 -11 0 -14 -3 -6 -6z"/>
<path d="M986 2441 c-4 -6 -2 -11 4 -11 6 0 8 -4 5 -10 -3 -5 -1 -10 4 -10 13
0 14 10 2 29 -6 9 -11 10 -15 2z"/>
<path d="M1105 2430 c-3 -6 1 -7 9 -4 18 7 21 14 7 14 -6 0 -13 -4 -16 -10z"/>
<path d="M735 2410 c-3 -6 1 -7 9 -4 18 7 21 14 7 14 -6 0 -13 -4 -16 -10z"/>
<path d="M544 2385 c-18 -14 -18 -14 4 -8 12 3 22 9 22 14 0 12 -3 11 -26 -6z"/>
<path d="M988 2383 c7 -3 16 -2 19 1 4 3 -2 6 -13 5 -11 0 -14 -3 -6 -6z"/>
<path d="M378 2373 c7 -3 16 -2 19 1 4 3 -2 6 -13 5 -11 0 -14 -3 -6 -6z"/>
<path d="M428 2363 c-10 -2 -18 -8 -18 -13 0 -8 69 6 79 16 6 5 -39 3 -61 -3z"/>
<path d="M368 2343 c6 -2 18 -2 25 0 6 3 1 5 -13 5 -14 0 -19 -2 -12 -5z"/>
<path d="M260 2332 c0 -4 17 -6 38 -4 58 5 62 10 10 11 -27 1 -48 -3 -48 -7z"/>
<path d="M948 2273 c6 -2 18 -2 25 0 6 3 1 5 -13 5 -14 0 -19 -2 -12 -5z"/>
<path d="M468 2263 c7 -3 16 -2 19 1 4 3 -2 6 -13 5 -11 0 -14 -3 -6 -6z"/>
<path d="M418 2253 c7 -3 16 -2 19 1 4 3 -2 6 -13 5 -11 0 -14 -3 -6 -6z"/>
<path d="M701 2244 c0 -11 3 -14 6 -6 3 7 2 16 -1 19 -3 4 -6 -2 -5 -13z"/>
<path d="M425 2201 l-230 -46 3 -28 c3 -22 7 -26 25 -22 28 7 238 51 337 71
41 8 83 17 93 20 17 5 24 39 10 47 -5 2 -111 -16 -238 -42z"/>
<path d="M293 2233 c9 -2 25 -2 35 0 9 3 1 5 -18 5 -19 0 -27 -2 -17 -5z"/>
<path d="M925 2220 c-3 -5 1 -10 9 -10 9 0 16 5 16 10 0 6 -4 10 -9 10 -6 0
-13 -4 -16 -10z"/>
<path d="M968 2223 c7 -3 16 -2 19 1 4 3 -2 6 -13 5 -11 0 -14 -3 -6 -6z"/>
<path d="M712 2190 c0 -14 2 -19 5 -12 2 6 2 18 0 25 -3 6 -5 1 -5 -13z"/>
<path d="M963 2193 c9 -2 25 -2 35 0 9 3 1 5 -18 5 -19 0 -27 -2 -17 -5z"/>
<path d="M898 2183 c7 -3 16 -2 19 1 4 3 -2 6 -13 5 -11 0 -14 -3 -6 -6z"/>
<path d="M816 2172 c-3 -5 8 -6 25 -4 16 2 29 6 29 8 0 8 -49 4 -54 -4z"/>
<path d="M579 2154 c-8 -10 -9 -15 -2 -11 6 4 13 1 16 -5 2 -7 8 -10 12 -6 4
3 3 14 -2 23 -9 15 -11 15 -24 -1z"/>
<path d="M778 2163 c7 -3 16 -2 19 1 4 3 -2 6 -13 5 -11 0 -14 -3 -6 -6z"/>
<path d="M638 2153 c7 -3 16 -2 19 1 4 3 -2 6 -13 5 -11 0 -14 -3 -6 -6z"/>
<path d="M878 2153 c7 -3 16 -2 19 1 4 3 -2 6 -13 5 -11 0 -14 -3 -6 -6z"/>
<path d="M530 2139 c0 -5 5 -7 10 -4 6 3 10 8 10 11 0 2 -4 4 -10 4 -5 0 -10
-5 -10 -11z"/>
<path d="M384 2117 c-4 -12 -13 -15 -31 -10 -24 5 -25 4 -21 -21 6 -29 5 -30
-24 -15 -12 6 -18 7 -14 1 3 -5 -1 -15 -9 -22 -8 -7 -15 -22 -15 -34 0 -17 -2
-18 -10 -6 -5 8 -5 19 0 25 5 6 6 16 2 23 -5 7 -12 1 -19 -18 -6 -17 -8 -28
-3 -25 5 3 12 -4 15 -16 7 -21 8 -21 30 7 13 16 27 26 31 22 4 -5 0 -16 -9
-26 -27 -30 -19 -43 10 -16 32 30 41 25 18 -10 -15 -23 -15 -26 -2 -26 9 0 22
7 31 15 18 18 27 19 20 2 -2 -7 9 -26 26 -42 16 -16 30 -23 30 -17 0 7 -6 15
-14 18 -8 3 -17 11 -19 18 -6 15 40 10 49 -5 9 -15 20 -10 21 11 1 11 -3 20
-8 20 -6 0 -7 -5 -3 -12 4 -7 3 -8 -5 -4 -6 4 -10 14 -9 23 3 18 -56 53 -89
53 -12 0 -24 4 -28 9 -3 6 4 8 17 6 31 -6 57 21 52 53 -7 34 -12 39 -20 19z
m-4 -61 c-10 -11 -32 2 -25 15 4 5 1 9 -4 9 -6 0 -11 5 -11 10 0 6 11 3 24 -7
14 -10 21 -22 16 -27z"/>
<path d="M858 2123 c7 -3 16 -2 19 1 4 3 -2 6 -13 5 -11 0 -14 -3 -6 -6z"/>
<path d="M765 2110 c-16 -7 -17 -9 -3 -9 9 -1 20 4 23 9 7 11 7 11 -20 0z"/>
<path d="M650 2080 c-8 -5 -11 -12 -7 -16 4 -4 13 -2 19 4 6 6 10 14 7 16 -2
3 -11 1 -19 -4z"/>
<path d="M490 2064 c0 -8 5 -12 10 -9 6 3 10 1 10 -6 0 -7 2 -10 5 -7 8 7 -5
38 -16 38 -5 0 -9 -7 -9 -16z"/>
<path d="M537 2063 c-12 -12 -7 -23 29 -60 19 -21 32 -31 29 -22 -4 10 -2 20
4 24 21 12 11 26 -10 15 -19 -11 -20 -10 -8 12 11 20 10 21 -2 11 -17 -14 -45
-1 -35 16 8 12 3 15 -7 4z"/>
<path d="M517 2004 c3 -7 14 -16 25 -20 32 -10 32 3 -1 19 -23 12 -28 12 -24
1z"/>
<path d="M5050 1956 c0 -9 8 -14 20 -13 11 1 20 2 20 4 0 1 -9 7 -20 13 -16 8
-20 8 -20 -4z"/>
<path d="M830 1950 c-8 -5 -10 -10 -5 -10 6 0 17 5 25 10 8 5 11 10 5 10 -5 0
-17 -5 -25 -10z"/>
<path d="M5010 1920 c0 -5 5 -10 10 -10 6 0 10 5 10 10 0 6 -4 10 -10 10 -5 0
-10 -4 -10 -10z"/>
<path d="M5085 1920 c-4 -6 -2 -17 4 -23 15 -15 25 -2 13 19 -7 12 -11 13 -17
4z"/>
<path d="M526 1912 c-3 -6 -1 -14 5 -17 15 -10 25 3 12 16 -7 7 -13 7 -17 1z"/>
<path d="M4918 1913 c7 -3 16 -2 19 1 4 3 -2 6 -13 5 -11 0 -14 -3 -6 -6z"/>
<path d="M5045 1910 c-3 -5 1 -10 9 -10 9 0 16 5 16 10 0 6 -4 10 -9 10 -6 0
-13 -4 -16 -10z"/>
<path d="M5005 1870 c-3 -5 1 -10 10 -10 9 0 13 5 10 10 -3 6 -8 10 -10 10 -2
0 -7 -4 -10 -10z"/>
<path d="M5000 1830 c0 -5 5 -10 11 -10 5 0 7 5 4 10 -3 6 -8 10 -11 10 -2 0
-4 -4 -4 -10z"/>
<path d="M5050 1820 c0 -5 5 -10 10 -10 6 0 10 5 10 10 0 6 -4 10 -10 10 -5 0
-10 -4 -10 -10z"/>
<path d="M5020 1780 c0 -5 5 -10 11 -10 5 0 7 5 4 10 -3 6 -8 10 -11 10 -2 0
-4 -4 -4 -10z"/>
<path d="M5050 1770 c0 -5 5 -10 10 -10 6 0 10 5 10 10 0 6 -4 10 -10 10 -5 0
-10 -4 -10 -10z"/>
<path d="M4978 1703 c7 -3 16 -2 19 1 4 3 -2 6 -13 5 -11 0 -14 -3 -6 -6z"/>
<path d="M4770 1605 c-7 -9 -9 -19 -5 -23 4 -4 10 -1 12 6 3 6 9 10 14 7 5 -4
6 1 3 9 -8 20 -9 20 -24 1z"/>
<path d="M4828 1563 c7 -3 16 -2 19 1 4 3 -2 6 -13 5 -11 0 -14 -3 -6 -6z"/>
<path d="M4736 1544 c-8 -21 -8 -24 5 -24 5 0 7 5 4 10 -3 6 1 10 9 10 8 0 18
5 21 10 3 6 -3 10 -13 10 -11 0 -23 -7 -26 -16z"/>
<path d="M4771 1531 c-8 -5 -9 -11 -3 -15 5 -3 12 1 16 9 6 17 6 18 -13 6z"/>
<path d="M4821 1514 c0 -11 3 -14 6 -6 3 7 2 16 -1 19 -3 4 -6 -2 -5 -13z"/>
<path d="M4707 1433 c-4 -3 -7 -11 -7 -17 0 -6 5 -5 12 2 6 6 9 14 7 17 -3 3
-9 2 -12 -2z"/>
<path d="M4780 1410 c0 -6 7 -10 15 -10 8 0 15 2 15 4 0 2 -7 6 -15 10 -8 3
-15 1 -15 -4z"/>
<path d="M4840 1350 c0 -5 5 -10 11 -10 5 0 7 5 4 10 -3 6 -8 10 -11 10 -2 0
-4 -4 -4 -10z"/>
<path d="M4780 1330 c0 -5 7 -7 15 -4 8 4 15 8 15 10 0 2 -7 4 -15 4 -8 0 -15
-4 -15 -10z"/>
<path d="M4833 1315 c0 -7 6 -11 14 -8 7 3 13 6 13 8 0 2 -6 5 -13 8 -8 3 -14
-1 -14 -8z"/>
<path d="M4790 1290 c0 -5 5 -10 10 -10 6 0 10 5 10 10 0 6 -4 10 -10 10 -5 0
-10 -4 -10 -10z"/>
<path d="M4907 1259 c7 -7 15 -10 18 -7 3 3 -2 9 -12 12 -14 6 -15 5 -6 -5z"/>
<path d="M3124 945 c-12 -8 -24 -11 -28 -8 -3 3 -6 1 -6 -6 0 -8 -8 -11 -20
-8 -13 3 -18 1 -13 -6 4 -7 0 -8 -11 -4 -9 4 -15 3 -11 -2 3 -5 -27 -21 -66
-36 -38 -15 -68 -29 -66 -31 11 -12 184 63 232 100 25 20 16 21 -11 1z"/>
<path d="M3660 905 c0 -27 -9 -32 -27 -14 -20 20 -31 0 -26 -44 3 -23 7 -44 9
-45 1 -2 15 -1 31 2 27 6 28 9 28 66 0 33 -3 60 -7 60 -5 0 -8 -11 -8 -25z
m-6 -51 c9 -24 7 -31 -10 -38 -11 -4 -15 -2 -11 8 3 8 1 16 -5 18 -12 4 -2 28
12 28 4 0 11 -7 14 -16z"/>
<path d="M3453 844 c4 -40 2 -54 -6 -51 -7 2 -12 16 -12 30 -1 33 -20 55 -28
33 -3 -8 -2 -18 3 -21 6 -4 10 -17 10 -31 0 -20 5 -24 28 -24 27 0 27 0 24 60
-2 33 -8 60 -14 60 -7 0 -9 -20 -5 -56z"/>
<path d="M3501 869 c-15 -6 -21 -14 -17 -25 3 -9 6 -26 6 -38 0 -20 4 -22 31
-18 30 4 31 6 25 40 -7 45 -15 52 -45 41z m29 -39 c0 -29 -13 -40 -25 -20 -3
6 -1 10 6 10 8 0 9 3 0 13 -6 8 -8 17 -4 20 14 15 23 6 23 -23z"/>
<path d="M3560 834 c0 -59 22 -55 24 4 1 28 -3 42 -11 42 -9 0 -13 -16 -13
-46z"/>
<path d="M140 853 c0 -5 5 -15 10 -23 8 -12 10 -11 10 8 0 12 -4 22 -10 22 -5
0 -10 -3 -10 -7z"/>
<path d="M3306 810 c-8 -58 -6 -63 18 -54 13 5 15 14 10 43 -11 62 -21 66 -28
11z"/>
<path d="M187 835 c-4 -8 -2 -17 2 -20 5 -3 11 1 14 9 3 8 16 16 29 19 18 3
16 5 -8 6 -20 0 -34 -5 -37 -14z"/>
<path d="M290 843 c8 -3 18 -11 22 -17 5 -7 8 -4 8 7 0 11 -7 17 -22 16 -16 0
-18 -2 -8 -6z"/>
<path d="M3350 821 c0 -47 9 -62 30 -51 9 5 20 6 24 3 10 -10 7 20 -4 37 -8
12 -10 10 -10 -8 0 -14 -4 -21 -11 -16 -6 3 -9 19 -5 35 4 22 2 29 -9 29 -10
0 -15 -10 -15 -29z"/>
<path d="M490 829 c0 -5 5 -7 10 -4 6 3 10 8 10 11 0 2 -4 4 -10 4 -5 0 -10
-5 -10 -11z"/>
<path d="M375 811 c19 -8 18 -9 -5 -14 -17 -3 -12 -4 13 -4 21 1 43 7 49 14 7
9 7 13 0 13 -6 0 -13 -6 -15 -12 -4 -10 -6 -10 -6 0 -1 6 -13 12 -28 11 -25 0
-25 -1 -8 -8z"/>
<path d="M445 790 c-3 -5 3 -10 14 -10 12 0 21 5 21 10 0 6 -6 10 -14 10 -8 0
-18 -4 -21 -10z"/>
<path d="M520 791 c0 -5 -8 -11 -17 -13 -15 -3 -14 -5 5 -10 17 -5 22 -2 22
13 0 10 -2 19 -5 19 -3 0 -5 -4 -5 -9z"/>
<path d="M150 760 c0 -17 35 -29 105 -35 38 -3 72 -9 75 -13 3 -4 25 -8 50
-10 25 -1 52 -3 60 -4 38 -4 100 3 100 11 0 5 -24 12 -52 15 -29 4 -64 9 -78
12 -22 4 -23 3 -5 -5 19 -9 19 -10 -2 -10 -12 -1 -25 4 -28 9 -4 6 -9 8 -13 6
-4 -2 -45 4 -92 15 -97 21 -120 23 -120 9z"/>
<path d="M861 713 c0 -30 2 -33 8 -18 l8 20 5 -20 c5 -19 6 -19 7 -1 1 20 1
20 17 0 14 -17 15 -17 10 -1 -3 10 -6 27 -6 38 0 14 -7 19 -25 19 -22 0 -25
-4 -24 -37z m39 19 c0 -5 -7 -9 -15 -9 -8 0 -15 4 -15 9 0 4 7 8 15 8 8 0 15
-4 15 -8z"/>
<path d="M1110 731 c0 -5 7 -11 15 -15 8 -3 15 -1 15 3 0 5 -7 11 -15 15 -8 3
-15 1 -15 -3z"/>
<path d="M933 705 c-3 -9 -3 -18 -1 -21 3 -3 8 4 11 16 6 23 -1 27 -10 5z"/>
<path d="M1070 699 c0 -5 5 -7 10 -4 6 3 10 8 10 11 0 2 -4 4 -10 4 -5 0 -10
-5 -10 -11z"/>
<path d="M1171 700 c0 -8 4 -24 9 -35 5 -13 9 -14 9 -5 0 8 -4 24 -9 35 -5 13
-9 14 -9 5z"/>
<path d="M2668 703 c6 -2 18 -2 25 0 6 3 1 5 -13 5 -14 0 -19 -2 -12 -5z"/>
<path d="M255 690 c17 -4 44 -8 60 -8 25 0 24 2 -10 9 -51 10 -92 10 -50 -1z"/>
<path d="M1096 685 c-3 -8 -1 -15 4 -15 6 0 10 7 10 15 0 8 -2 15 -4 15 -2 0
-6 -7 -10 -15z"/>
<path d="M1125 690 c-3 -6 1 -7 9 -4 18 7 21 14 7 14 -6 0 -13 -4 -16 -10z"/>
<path d="M1210 680 c0 -11 4 -20 9 -20 5 0 7 9 4 20 -3 11 -7 20 -9 20 -2 0
-4 -9 -4 -20z"/>
<path d="M1247 679 c4 -13 8 -18 11 -10 2 7 -1 18 -6 23 -8 8 -9 4 -5 -13z"/>
<path d="M3017 693 c-4 -3 -7 -23 -7 -43 0 -43 -8 -54 -26 -39 -8 6 -21 9 -29
5 -8 -3 -15 0 -15 6 0 7 -5 6 -15 -2 -8 -7 -15 -20 -15 -29 0 -9 -16 -27 -35
-40 -33 -22 -34 -25 -18 -37 16 -13 15 -13 -7 -5 -14 5 -24 15 -24 24 1 9 -5
13 -17 10 -11 -3 -21 1 -25 11 -3 9 -17 16 -30 16 -13 0 -29 9 -36 20 -15 23
-33 27 -25 6 3 -8 -3 -22 -15 -32 -27 -26 -37 -46 -47 -101 -11 -57 -3 -77 15
-37 13 28 13 28 8 3 -3 -16 -1 -30 7 -34 8 -5 10 -4 5 3 -10 17 4 15 25 -3 15
-15 17 -14 23 9 4 18 11 23 26 19 13 -4 26 1 36 13 14 18 15 18 5 -3 -6 -12
-11 -24 -11 -27 0 -8 34 6 42 18 4 6 9 4 14 -7 3 -9 10 -17 16 -17 5 0 7 4 3
9 -3 5 -1 12 5 16 5 3 10 -1 10 -9 0 -44 41 14 64 92 4 12 11 22 16 22 5 0 7
-6 4 -14 -4 -11 0 -13 15 -9 15 4 21 1 21 -11 0 -9 -4 -16 -9 -16 -5 0 -8 -11
-8 -25 0 -15 5 -25 13 -25 9 0 14 11 14 28 1 26 1 26 15 8 8 -10 12 -23 9 -27
-3 -5 2 -9 10 -9 15 0 20 11 17 36 -1 6 6 17 14 24 13 11 15 7 15 -23 0 -57
18 -52 22 5 2 38 -1 56 -13 67 -38 37 -49 85 -26 121 10 17 9 22 -3 30 -18 12
-24 12 -33 3z m-305 -122 c-8 -4 -13 -11 -12 -15 0 -3 -4 -14 -9 -24 -7 -11
-11 -12 -11 -4 0 21 19 52 33 52 8 0 8 -3 -1 -9z m339 -64 c-10 -9 -11 -8 -5
6 3 10 9 15 12 12 3 -3 0 -11 -7 -18z m-37 -2 c3 -9 0 -15 -9 -15 -9 0 -12 6
-9 15 4 8 7 15 9 15 2 0 5 -7 9 -15z"/>
<path d="M478 683 c7 -3 16 -2 19 1 4 3 -2 6 -13 5 -11 0 -14 -3 -6 -6z"/>
<path d="M525 680 c-19 -8 -19 -9 3 -9 12 -1 22 4 22 9 0 6 -1 10 -2 9 -2 0
-12 -4 -23 -9z"/>
<path d="M1270 680 c0 -5 5 -10 10 -10 6 0 10 5 10 10 0 6 -4 10 -10 10 -5 0
-10 -4 -10 -10z"/>
<path d="M1313 672 c0 -12 5 -22 9 -22 11 0 10 12 -2 30 -7 12 -9 10 -7 -8z"/>
<path d="M1340 671 c0 -11 3 -22 8 -24 4 -3 7 6 7 19 0 13 -3 24 -7 24 -5 0
-8 -9 -8 -19z"/>
<path d="M420 670 c-13 -8 -12 -10 3 -10 9 0 17 5 17 10 0 12 -1 12 -20 0z"/>
<path d="M1370 669 c0 -5 5 -7 10 -4 6 3 10 8 10 11 0 2 -4 4 -10 4 -5 0 -10
-5 -10 -11z"/>
<path d="M1412 655 c0 -16 2 -22 5 -12 2 9 2 23 0 30 -3 6 -5 -1 -5 -18z"/>
<path d="M2906 658 c4 -5 -4 -20 -17 -34 -12 -13 -19 -24 -15 -24 8 0 55 52
56 61 0 3 -7 6 -15 6 -8 0 -12 -4 -9 -9z"/>
<path d="M185 650 c3 -5 24 -13 46 -16 21 -4 39 -10 39 -14 0 -4 24 -11 53
-16 28 -4 57 -8 62 -9 6 -1 21 -7 35 -12 14 -6 39 -13 55 -17 57 -12 70 -15
93 -22 25 -7 26 -4 10 30 -14 32 -41 40 -213 66 -146 22 -189 25 -180 10z
m250 -40 c3 -5 1 -10 -4 -10 -6 0 -11 5 -11 10 0 6 2 10 4 10 3 0 8 -4 11 -10z
m48 -7 c-7 -2 -19 -2 -25 0 -7 3 -2 5 12 5 14 0 19 -2 13 -5z"/>
<path d="M520 652 c0 -5 9 -12 21 -15 13 -3 19 -1 16 6 -5 15 -37 22 -37 9z"/>
<path d="M800 650 c0 -13 33 -25 92 -34 26 -4 50 -12 54 -17 3 -5 7 -39 8 -75
2 -35 7 -68 11 -72 5 -4 5 -2 1 5 -10 17 9 24 28 10 26 -19 10 -49 -23 -45
-17 2 -25 8 -23 18 3 12 1 13 -10 2 -11 -11 -10 -16 6 -28 29 -20 50 -17 79
12 16 16 31 23 39 18 10 -6 10 -5 1 7 -6 8 -10 30 -9 49 2 19 -4 46 -12 59
-14 23 -14 23 7 9 41 -29 60 -64 64 -119 3 -48 5 -53 30 -60 26 -7 27 -6 27
38 0 24 -5 53 -10 64 -14 25 -7 24 24 -4 13 -12 37 -29 53 -37 15 -8 42 -26
58 -41 39 -34 57 -40 78 -24 17 12 15 15 -22 41 -22 16 -41 35 -41 42 0 6 -4
12 -10 12 -5 0 -10 4 -10 9 0 6 -16 27 -35 48 -51 56 -47 64 27 47 35 -8 75
-21 90 -29 19 -9 30 -10 34 -3 5 7 12 4 22 -8 14 -18 14 -18 7 1 -4 11 -8 28
-9 37 0 12 -4 14 -12 7 -8 -7 -15 -6 -20 2 -4 8 -3 9 4 5 7 -4 12 -3 12 2 0
13 -143 31 -380 47 -47 3 -111 8 -144 11 -42 5 -57 3 -52 -5 4 -6 2 -11 -3
-11 -6 0 -11 5 -11 10 0 6 -4 10 -10 10 -5 0 -10 -5 -10 -10z m350 -200 c0 -5
-2 -10 -4 -10 -3 0 -8 5 -11 10 -3 6 -1 10 4 10 6 0 11 -4 11 -10z"/>
<path d="M1530 644 c0 -7 14 -10 35 -8 23 1 33 -1 29 -8 -4 -7 -2 -8 4 -4 22
14 12 24 -28 28 -25 2 -40 -1 -40 -8z"/>
<path d="M1870 656 c0 -2 7 -7 16 -10 8 -3 12 -2 9 4 -6 10 -25 14 -25 6z"/>
<path d="M2045 650 c3 -5 8 -10 11 -10 2 0 4 5 4 10 0 6 -5 10 -11 10 -5 0 -7
-4 -4 -10z"/>
<path d="M2080 649 c0 -5 9 -9 20 -9 11 0 20 2 20 4 0 2 -9 6 -20 9 -11 3 -20
1 -20 -4z"/>
<path d="M2140 648 c0 -5 18 -8 40 -8 22 0 40 2 40 4 0 2 -18 6 -40 8 -22 2
-40 0 -40 -4z"/>
<path d="M1461 634 c0 -11 3 -14 6 -6 3 7 2 16 -1 19 -3 4 -6 -2 -5 -13z"/>
<path d="M1620 636 c0 -8 48 -12 66 -5 13 5 7 8 -23 8 -24 1 -43 -1 -43 -3z"/>
<path d="M1778 623 c17 -2 47 -2 65 0 17 2 3 4 -33 4 -36 0 -50 -2 -32 -4z"/>
<path d="M2298 623 c7 -3 16 -2 19 1 4 3 -2 6 -13 5 -11 0 -14 -3 -6 -6z"/>
<path d="M3050 619 c0 -5 5 -7 10 -4 6 3 10 8 10 11 0 2 -4 4 -10 4 -5 0 -10
-5 -10 -11z"/>
<path d="M1913 613 c15 -2 37 -2 50 0 12 2 0 4 -28 4 -27 0 -38 -2 -22 -4z"/>
<path d="M2008 613 c7 -3 16 -2 19 1 4 3 -2 6 -13 5 -11 0 -14 -3 -6 -6z"/>
<path d="M2178 613 c7 -3 16 -2 19 1 4 3 -2 6 -13 5 -11 0 -14 -3 -6 -6z"/>
<path d="M2810 604 l-35 -14 35 6 c19 3 39 10 45 15 13 13 -3 10 -45 -7z"/>
<path d="M1553 603 c9 -2 23 -2 30 0 6 3 -1 5 -18 5 -16 0 -22 -2 -12 -5z"/>
<path d="M1646 601 c-3 -5 1 -11 9 -15 8 -3 15 -1 15 4 0 13 -18 22 -24 11z"/>
<path d="M1765 600 c3 -6 20 -10 37 -10 38 0 34 5 -10 13 -21 4 -31 3 -27 -3z"/>
<path d="M1688 593 c7 -3 16 -2 19 1 4 3 -2 6 -13 5 -11 0 -14 -3 -6 -6z"/>
<path d="M1841 596 c3 -3 44 -10 87 -16 2 0 0 -6 -4 -12 -4 -7 -3 -9 1 -5 5 4
10 14 11 22 2 12 -10 15 -49 15 -27 0 -48 -2 -46 -4z"/>
<path d="M2008 593 c6 -2 18 -2 25 0 6 3 1 5 -13 5 -14 0 -19 -2 -12 -5z"/>
<path d="M2060 596 c0 -9 30 -14 35 -6 4 6 -3 10 -14 10 -12 0 -21 -2 -21 -4z"/>
<path d="M2748 593 c7 -3 16 -2 19 1 4 3 -2 6 -13 5 -11 0 -14 -3 -6 -6z"/>
<path d="M1543 580 c2 -8 12 -16 23 -17 13 -2 15 -1 4 4 -8 3 -19 11 -23 17
-6 7 -7 6 -4 -4z"/>
<path d="M2158 583 c12 -2 30 -2 40 0 9 3 -1 5 -23 4 -22 0 -30 -2 -17 -4z"/>
<path d="M2224 583 c10 -11 37 -12 30 -2 -3 5 -12 9 -21 9 -9 0 -13 -3 -9 -7z"/>
<path d="M1688 573 c7 -3 16 -2 19 1 4 3 -2 6 -13 5 -11 0 -14 -3 -6 -6z"/>
<path d="M1775 570 l-30 -8 27 -1 c15 0 30 4 33 9 3 6 5 9 3 9 -2 -1 -16 -5
-33 -9z"/>
<path d="M2278 573 c7 -3 16 -2 19 1 4 3 -2 6 -13 5 -11 0 -14 -3 -6 -6z"/>
<path d="M2850 570 c-12 -7 -10 -9 7 -7 12 0 19 5 17 9 -6 10 -6 10 -24 -2z"/>
<path d="M1624 563 c27 -3 35 -7 26 -13 -8 -5 1 -8 26 -8 l38 0 -33 14 c-18 8
-47 13 -65 12 -27 -1 -25 -2 8 -5z"/>
<path d="M2130 560 c0 -5 10 -10 23 -10 18 0 19 2 7 10 -19 13 -30 13 -30 0z"/>
<path d="M1552 533 c2 -13 14 -18 43 -19 l40 -1 -37 4 c-44 5 -50 20 -10 26
25 4 24 4 -6 6 -27 1 -33 -2 -30 -16z"/>
<path d="M1763 543 c9 -2 23 -2 30 0 6 3 -1 5 -18 5 -16 0 -22 -2 -12 -5z"/>
<path d="M1878 543 c6 -2 18 -2 25 0 6 3 1 5 -13 5 -14 0 -19 -2 -12 -5z"/>
<path d="M2008 543 c7 -3 16 -2 19 1 4 3 -2 6 -13 5 -11 0 -14 -3 -6 -6z"/>
<path d="M454 528 c-4 -7 -4 -10 -1 -7 4 3 33 -19 64 -48 55 -51 155 -124 161
-118 6 6 -74 148 -85 151 -7 2 -21 7 -30 11 -10 4 -25 7 -34 8 -9 1 -28 5 -42
9 -16 4 -28 1 -33 -6z"/>
<path d="M2130 530 c0 -5 15 -10 33 -9 27 0 29 2 12 9 -28 12 -45 12 -45 0z"/>
<path d="M1640 520 c0 -6 -10 -14 -22 -19 -17 -6 -8 -8 32 -8 30 0 43 2 28 4
-16 2 -28 9 -28 14 0 5 12 7 28 3 21 -4 24 -3 12 5 -19 14 -50 14 -50 1z"/>
<path d="M1800 520 c0 -5 5 -10 11 -10 5 0 7 5 4 10 -3 6 -8 10 -11 10 -2 0
-4 -4 -4 -10z"/>
<path d="M1854 521 c18 -7 66 -3 66 5 0 2 -19 4 -42 3 -31 0 -37 -3 -24 -8z"/>
<path d="M2008 523 c7 -3 16 -2 19 1 4 3 -2 6 -13 5 -11 0 -14 -3 -6 -6z"/>
<path d="M2078 523 c6 -2 18 -2 25 0 6 3 1 5 -13 5 -14 0 -19 -2 -12 -5z"/>
<path d="M2138 503 c12 -2 32 -2 45 0 12 2 2 4 -23 4 -25 0 -35 -2 -22 -4z"/>
<path d="M1788 493 c12 -2 30 -2 40 0 9 3 -1 5 -23 4 -22 0 -30 -2 -17 -4z"/>
<path d="M1858 493 c6 -2 18 -2 25 0 6 3 1 5 -13 5 -14 0 -19 -2 -12 -5z"/>
<path d="M2926 452 c-3 -6 -1 -14 5 -17 15 -10 25 3 12 16 -7 7 -13 7 -17 1z"/>
<path d="M2000 431 c0 -20 -48 -51 -79 -51 -13 -1 -13 -2 2 -11 10 -6 29 -8
43 -5 24 6 34 -8 12 -17 -8 -3 -5 -6 5 -6 11 -1 18 -8 16 -18 -3 -34 1 -43 21
-43 11 0 20 -4 20 -8 0 -4 25 -7 55 -6 30 1 55 -2 55 -7 0 -5 33 -8 73 -7 62
1 66 2 27 7 -35 5 -45 10 -47 26 -8 92 -15 115 -41 136 l-27 21 -5 -23 c-6
-23 -36 -40 -58 -32 -8 4 -10 -1 -6 -13 5 -18 5 -18 -6 -1 -6 10 -9 31 -5 47
6 28 5 30 -24 30 -24 0 -31 -4 -31 -19z m160 -61 c0 -5 -4 -10 -10 -10 -5 0
-10 5 -10 10 0 6 5 10 10 10 6 0 10 -4 10 -10z m-110 -15 c0 -8 -4 -15 -10
-15 -5 0 -7 7 -4 15 4 8 8 15 10 15 2 0 4 -7 4 -15z m87 -62 c-3 -10 -5 -4 -5
12 0 17 2 24 5 18 2 -7 2 -21 0 -30z"/>
<path d="M2471 420 c6 -4 31 -6 55 -5 24 2 44 0 44 -4 0 -4 9 -7 20 -8 17 -2
18 0 7 12 -9 9 -36 13 -76 13 -34 -1 -57 -4 -50 -8z"/>
<path d="M1910 400 c0 -5 5 -10 11 -10 5 0 7 5 4 10 -3 6 -8 10 -11 10 -2 0
-4 -4 -4 -10z"/>
<path d="M2720 400 c0 -5 5 -10 10 -10 6 0 10 5 10 10 0 6 -4 10 -10 10 -5 0
-10 -4 -10 -10z"/>
<path d="M2956 393 c-6 -14 -5 -15 5 -6 7 7 10 15 7 18 -3 3 -9 -2 -12 -12z"/>
<path d="M1850 379 c0 -13 7 -19 24 -19 18 0 23 4 19 18 -6 25 -43 26 -43 1z"/>
<path d="M2905 380 c-19 -8 -19 -9 3 -9 12 -1 22 4 22 9 0 6 -1 10 -2 9 -2 0
-12 -4 -23 -9z"/>
<path d="M1780 339 c0 -5 5 -7 10 -4 6 3 10 8 10 11 0 2 -4 4 -10 4 -5 0 -10
-5 -10 -11z"/>
<path d="M1260 320 c0 -5 5 -10 11 -10 5 0 7 5 4 10 -3 6 -8 10 -11 10 -2 0
-4 -4 -4 -10z"/>
<path d="M3120 320 c0 -5 5 -10 11 -10 5 0 7 5 4 10 -3 6 -8 10 -11 10 -2 0
-4 -4 -4 -10z"/>
<path d="M1837 307 c3 -5 11 -6 18 -3 8 3 15 0 17 -6 2 -6 10 -8 16 -4 23 14
12 26 -22 23 -19 -1 -32 -6 -29 -10z"/>
<path d="M1925 312 c-12 -13 -3 -21 25 -20 17 1 30 4 30 8 0 9 -47 19 -55 12z"/>
<path d="M960 290 c8 -5 20 -10 25 -10 6 0 3 5 -5 10 -8 5 -19 10 -25 10 -5 0
-3 -5 5 -10z"/>
<path d="M3399 298 c-8 -28 -5 -36 13 -33 30 6 35 15 9 15 -12 0 -19 4 -16 10
3 6 4 10 1 10 -3 0 -6 -1 -7 -2z"/>
<path d="M3868 293 c7 -3 16 -2 19 1 4 3 -2 6 -13 5 -11 0 -14 -3 -6 -6z"/>
<path d="M2307 279 c7 -7 15 -10 18 -7 3 3 -2 9 -12 12 -14 6 -15 5 -6 -5z"/>
<path d="M3153 262 c-7 -7 -18 -10 -24 -7 -5 4 -25 4 -44 1 -24 -5 -35 -13
-39 -30 -5 -19 -14 -25 -55 -30 -44 -6 -50 -10 -60 -38 -6 -17 -11 -41 -11
-54 0 -20 4 -23 28 -19 15 2 68 9 117 15 142 17 145 18 144 48 -1 16 -3 20 -6
10 -5 -21 -27 -28 -73 -24 -29 3 -35 7 -35 27 0 21 6 25 55 33 30 5 56 10 57
11 1 0 5 17 8 36 5 32 4 34 -22 34 -14 0 -32 -6 -40 -13z"/>
<path d="M2538 203 c7 -3 16 -2 19 1 4 3 -2 6 -13 5 -11 0 -14 -3 -6 -6z"/>
<path d="M948 173 c12 -2 30 -2 40 0 9 3 -1 5 -23 4 -22 0 -30 -2 -17 -4z"/>
<path d="M1020 168 c0 -4 9 -8 20 -8 11 0 20 4 20 8 0 4 -9 8 -20 8 -11 0 -20
-4 -20 -8z"/>
<path d="M1980 161 c-7 -13 -7 -22 0 -26 5 -3 10 -1 10 6 0 8 7 6 19 -5 14
-13 21 -14 27 -5 5 8 3 10 -6 4 -10 -6 -12 -4 -7 8 5 13 1 17 -14 17 -11 0
-17 5 -14 10 3 6 4 10 1 10 -3 0 -10 -9 -16 -19z"/>
<path d="M2435 170 c-3 -5 1 -10 10 -10 9 0 13 5 10 10 -3 6 -8 10 -10 10 -2
0 -7 -4 -10 -10z"/>
<path d="M1070 166 c0 -2 7 -6 15 -10 8 -3 15 -1 15 4 0 6 -7 10 -15 10 -8 0
-15 -2 -15 -4z"/>
<path d="M1115 160 c-3 -5 12 -11 32 -14 83 -14 280 -36 308 -35 17 1 -32 9
-107 19 -76 10 -158 23 -183 28 -25 5 -47 6 -50 2z"/>
<path d="M1528 163 c6 -2 18 -2 25 0 6 3 1 5 -13 5 -14 0 -19 -2 -12 -5z"/>
<path d="M2588 153 c7 -3 16 -2 19 1 4 3 -2 6 -13 5 -11 0 -14 -3 -6 -6z"/>
<path d="M3605 150 c-4 -6 -10 -8 -15 -5 -18 11 -291 -24 -313 -41 -21 -15
-17 -16 63 -10 47 3 111 6 144 6 51 0 57 2 52 18 -5 14 -4 14 9 -2 8 -11 15
-16 15 -10 0 5 30 9 67 9 231 1 403 6 403 13 0 4 -80 7 -177 6 -98 0 -160 2
-138 6 22 4 38 8 35 10 -13 7 -120 6 -120 -1 0 -5 -5 -9 -11 -9 -5 0 -7 5 -4
10 3 6 4 10 1 10 -3 0 -8 -5 -11 -10z m65 -20 c0 -5 -10 -10 -22 -9 -22 0 -22
1 -3 9 11 5 21 9 23 9 1 1 2 -3 2 -9z"/>
<path d="M3768 153 c7 -3 16 -2 19 1 4 3 -2 6 -13 5 -11 0 -14 -3 -6 -6z"/>
<path d="M3800 149 c0 -5 5 -7 10 -4 6 3 10 8 10 11 0 2 -4 4 -10 4 -5 0 -10
-5 -10 -11z"/>
<path d="M2488 143 c7 -3 16 -2 19 1 4 3 -2 6 -13 5 -11 0 -14 -3 -6 -6z"/>
<path d="M2516 132 c-3 -4 4 -9 15 -9 23 -2 25 3 4 10 -8 4 -16 3 -19 -1z"/>
<path d="M2466 122 c-2 -4 4 -9 15 -9 11 -1 17 2 14 8 -7 11 -22 12 -29 1z"/>
<path d="M2578 123 c6 -2 18 -2 25 0 6 3 1 5 -13 5 -14 0 -19 -2 -12 -5z"/>
<path d="M1568 103 c7 -3 16 -2 19 1 4 3 -2 6 -13 5 -11 0 -14 -3 -6 -6z"/>
<path d="M940 90 c14 -4 36 -8 50 -8 23 -1 23 0 5 8 -11 5 -33 8 -50 8 -29 0
-29 0 -5 -8z"/>
<path d="M3115 90 c-34 -6 -35 -7 -10 -8 17 0 50 3 75 7 40 8 41 8 10 8 -19 0
-53 -3 -75 -7z"/>
<path d="M1025 80 c3 -5 8 -10 11 -10 2 0 4 5 4 10 0 6 -5 10 -11 10 -5 0 -7
-4 -4 -10z"/>
<path d="M1050 80 c0 -7 131 -30 172 -30 44 0 9 10 -80 23 -51 8 -92 11 -92 7z"/>
<path d="M1798 83 c7 -3 16 -2 19 1 4 3 -2 6 -13 5 -11 0 -14 -3 -6 -6z"/>
<path d="M1918 73 c12 -2 32 -2 45 0 12 2 2 4 -23 4 -25 0 -35 -2 -22 -4z"/>
<path d="M2955 70 c-33 -6 -35 -7 -10 -8 17 0 53 3 80 8 47 7 48 7 10 7 -22 0
-58 -3 -80 -7z"/>
<path d="M1275 51 c-22 -5 1 -10 85 -20 178 -19 360 -26 360 -13 0 7 -24 10
-67 8 -38 -2 -72 -1 -78 2 -5 3 -36 6 -70 7 -33 1 -60 3 -60 4 0 1 -25 3 -55
5 -30 1 -62 5 -70 8 -8 3 -28 3 -45 -1z"/>
<path d="M3635 50 c-3 -5 3 -10 14 -10 12 0 21 5 21 10 0 6 -6 10 -14 10 -8 0
-18 -4 -21 -10z"/>
<path d="M3683 46 c-4 -7 -15 -15 -23 -18 -8 -3 2 -5 23 -5 39 1 50 12 20 20
-14 4 -12 5 5 6 13 1 22 -5 22 -14 0 -9 9 -15 23 -15 16 0 18 3 9 9 -11 6 -10
10 4 15 10 4 21 2 24 -5 6 -8 10 -8 15 2 6 9 10 8 16 -7 7 -17 8 -17 8 -1 1
13 10 17 44 16 29 0 36 -3 23 -8 -32 -12 1 -17 74 -10 36 3 54 7 40 8 -14 2
-31 3 -39 2 -7 -2 -10 2 -6 8 3 6 1 11 -4 11 -6 0 -11 -4 -11 -10 0 -5 -8 -10
-17 -10 -15 0 -16 2 -3 10 10 7 -26 10 -112 10 -96 0 -129 -3 -135 -14z"/>
<path d="M2543 43 c20 -2 54 -2 75 0 20 2 3 4 -38 4 -41 0 -58 -2 -37 -4z"/>
<path d="M3432 40 c-117 -10 -151 -18 -131 -31 20 -13 56 -11 63 4 5 10 7 10
12 0 8 -18 27 -16 20 2 -7 20 3 19 26 -2 17 -15 18 -15 18 1 0 15 2 15 25 0
14 -9 28 -14 32 -10 3 3 1 6 -5 6 -7 0 -12 5 -12 10 0 6 9 10 20 10 11 0 20
-4 20 -10 0 -5 4 -10 10 -10 5 0 7 7 3 16 -5 14 -3 15 15 5 11 -6 29 -11 39
-10 13 1 11 3 -7 10 -23 8 -22 8 8 5 17 -1 32 1 32 6 0 9 -54 9 -188 -2z"/>
<path d="M788 20 c18 -19 30 -20 195 -19 97 1 174 5 172 9 -5 9 -118 19 -273
25 -113 5 -113 5 -94 -15z"/>
<path d="M3848 33 c7 -3 16 -2 19 1 4 3 -2 6 -13 5 -11 0 -14 -3 -6 -6z"/>
<path d="M1920 20 c0 -13 11 -13 30 0 12 8 11 10 -7 10 -13 0 -23 -4 -23 -10z"/>
</g>
</svg>
